%TF.GenerationSoftware,KiCad,Pcbnew,9.0.0*%
%TF.CreationDate,2025-07-15T20:53:44+01:00*%
%TF.ProjectId,debug,64656275-672e-46b6-9963-61645f706362,rev?*%
%TF.SameCoordinates,Original*%
%TF.FileFunction,Soldermask,Top*%
%TF.FilePolarity,Negative*%
%FSLAX46Y46*%
G04 Gerber Fmt 4.6, Leading zero omitted, Abs format (unit mm)*
G04 Created by KiCad (PCBNEW 9.0.0) date 2025-07-15 20:53:44*
%MOMM*%
%LPD*%
G01*
G04 APERTURE LIST*
G04 Aperture macros list*
%AMRoundRect*
0 Rectangle with rounded corners*
0 $1 Rounding radius*
0 $2 $3 $4 $5 $6 $7 $8 $9 X,Y pos of 4 corners*
0 Add a 4 corners polygon primitive as box body*
4,1,4,$2,$3,$4,$5,$6,$7,$8,$9,$2,$3,0*
0 Add four circle primitives for the rounded corners*
1,1,$1+$1,$2,$3*
1,1,$1+$1,$4,$5*
1,1,$1+$1,$6,$7*
1,1,$1+$1,$8,$9*
0 Add four rect primitives between the rounded corners*
20,1,$1+$1,$2,$3,$4,$5,0*
20,1,$1+$1,$4,$5,$6,$7,0*
20,1,$1+$1,$6,$7,$8,$9,0*
20,1,$1+$1,$8,$9,$2,$3,0*%
G04 Aperture macros list end*
%ADD10R,1.700000X1.700000*%
%ADD11O,1.700000X1.700000*%
%ADD12RoundRect,0.250001X-0.462499X-0.624999X0.462499X-0.624999X0.462499X0.624999X-0.462499X0.624999X0*%
%ADD13R,2.180000X1.600000*%
%ADD14RoundRect,0.102000X-0.762000X-0.762000X0.762000X-0.762000X0.762000X0.762000X-0.762000X0.762000X0*%
%ADD15C,1.728000*%
G04 APERTURE END LIST*
D10*
%TO.C,CN7*%
X68580000Y-81280000D03*
D11*
X71120000Y-81280000D03*
X68580000Y-83820000D03*
X71120000Y-83820000D03*
X68580000Y-86360000D03*
X71120000Y-86360000D03*
X68580000Y-88900000D03*
X71120000Y-88900000D03*
X68580000Y-91440000D03*
X71120000Y-91440000D03*
X68580000Y-93980000D03*
X71120000Y-93980000D03*
X68580000Y-96520000D03*
X71120000Y-96520000D03*
X68580000Y-99060000D03*
X71120000Y-99060000D03*
X68580000Y-101600000D03*
X71120000Y-101600000D03*
X68580000Y-104140000D03*
X71120000Y-104140000D03*
X68580000Y-106680000D03*
X71120000Y-106680000D03*
X68580000Y-109220000D03*
X71120000Y-109220000D03*
X68580000Y-111760000D03*
X71120000Y-111760000D03*
X68580000Y-114300000D03*
X71120000Y-114300000D03*
X68580000Y-116840000D03*
X71120000Y-116840000D03*
X68580000Y-119380000D03*
X71120000Y-119380000D03*
X68580000Y-121920000D03*
X71120000Y-121920000D03*
X68580000Y-124460000D03*
X71120000Y-124460000D03*
X68580000Y-127000000D03*
X71120000Y-127000000D03*
%TD*%
D12*
%TO.C,D2*%
X184620000Y-93200000D03*
X187595000Y-93200000D03*
%TD*%
%TO.C,D6*%
X184595000Y-109200000D03*
X187570000Y-109200000D03*
%TD*%
%TO.C,D3*%
X184620000Y-97200000D03*
X187595000Y-97200000D03*
%TD*%
D10*
%TO.C,J2*%
X58420000Y-116840000D03*
D11*
X58420000Y-119380000D03*
%TD*%
D13*
%TO.C,SW2*%
X177800000Y-120520000D03*
X186980000Y-120520000D03*
%TD*%
D10*
%TO.C,J3*%
X58420000Y-88900000D03*
D11*
X58420000Y-91440000D03*
X58420000Y-93980000D03*
X58420000Y-96520000D03*
%TD*%
D10*
%TO.C,CN10*%
X165100000Y-81280000D03*
D11*
X167640000Y-81280000D03*
X165100000Y-83820000D03*
X167640000Y-83820000D03*
X165100000Y-86360000D03*
X167640000Y-86360000D03*
X165100000Y-88900000D03*
X167640000Y-88900000D03*
X165100000Y-91440000D03*
X167640000Y-91440000D03*
X165100000Y-93980000D03*
X167640000Y-93980000D03*
X165100000Y-96520000D03*
X167640000Y-96520000D03*
X165100000Y-99060000D03*
X167640000Y-99060000D03*
X165100000Y-101600000D03*
X167640000Y-101600000D03*
X165100000Y-104140000D03*
X167640000Y-104140000D03*
X165100000Y-106680000D03*
X167640000Y-106680000D03*
X165100000Y-109220000D03*
X167640000Y-109220000D03*
X165100000Y-111760000D03*
X167640000Y-111760000D03*
X165100000Y-114300000D03*
X167640000Y-114300000D03*
X165100000Y-116840000D03*
X167640000Y-116840000D03*
X165100000Y-119380000D03*
X167640000Y-119380000D03*
X165100000Y-121920000D03*
X167640000Y-121920000D03*
X165100000Y-124460000D03*
X167640000Y-124460000D03*
X165100000Y-127000000D03*
X167640000Y-127000000D03*
%TD*%
D12*
%TO.C,PWR1*%
X184720000Y-89200000D03*
X187695000Y-89200000D03*
%TD*%
D10*
%TO.C,J1*%
X182880000Y-81280000D03*
D11*
X182880000Y-83820000D03*
%TD*%
D13*
%TO.C,RST1*%
X177800000Y-127000000D03*
X186980000Y-127000000D03*
%TD*%
D12*
%TO.C,D5*%
X184695000Y-105200000D03*
X187670000Y-105200000D03*
%TD*%
D14*
%TO.C,U1*%
X86360000Y-81280000D03*
D15*
X88900000Y-81280000D03*
X86360000Y-83820000D03*
X88900000Y-83820000D03*
X86360000Y-86360000D03*
X88900000Y-86360000D03*
X86360000Y-88900000D03*
X88900000Y-88900000D03*
X86360000Y-91440000D03*
X88900000Y-91440000D03*
X86360000Y-93980000D03*
X88900000Y-93980000D03*
X86360000Y-96520000D03*
X88900000Y-96520000D03*
X86360000Y-99060000D03*
X88900000Y-99060000D03*
X86360000Y-101600000D03*
X88900000Y-101600000D03*
X86360000Y-104140000D03*
X88900000Y-104140000D03*
X86360000Y-106680000D03*
X88900000Y-106680000D03*
X86360000Y-109220000D03*
X88900000Y-109220000D03*
X86360000Y-111760000D03*
X88900000Y-111760000D03*
X86360000Y-114300000D03*
X88900000Y-114300000D03*
X86360000Y-116840000D03*
X88900000Y-116840000D03*
X86360000Y-119380000D03*
X88900000Y-119380000D03*
X86360000Y-121920000D03*
X88900000Y-121920000D03*
X86360000Y-124460000D03*
X88900000Y-124460000D03*
X86360000Y-127000000D03*
X88900000Y-127000000D03*
X147320000Y-81280000D03*
X149860000Y-81280000D03*
X147320000Y-83820000D03*
X149860000Y-83820000D03*
X147320000Y-86360000D03*
X149860000Y-86360000D03*
X147320000Y-88900000D03*
X149860000Y-88900000D03*
X147320000Y-91440000D03*
X149860000Y-91440000D03*
X147320000Y-93980000D03*
X149860000Y-93980000D03*
X147320000Y-96520000D03*
X149860000Y-96520000D03*
X147320000Y-99060000D03*
X149860000Y-99060000D03*
X147320000Y-101600000D03*
X149860000Y-101600000D03*
X147320000Y-104140000D03*
X149860000Y-104140000D03*
X147320000Y-106680000D03*
X149860000Y-106680000D03*
X147320000Y-109220000D03*
X149860000Y-109220000D03*
X147320000Y-111760000D03*
X149860000Y-111760000D03*
X147320000Y-114300000D03*
X149860000Y-114300000D03*
X147320000Y-116840000D03*
X149860000Y-116840000D03*
X147320000Y-119380000D03*
X149860000Y-119380000D03*
X147320000Y-121920000D03*
X149860000Y-121920000D03*
X147320000Y-124460000D03*
X149860000Y-124460000D03*
X147320000Y-127000000D03*
X149860000Y-127000000D03*
%TD*%
D12*
%TO.C,PWM1*%
X184620000Y-101200000D03*
X187595000Y-101200000D03*
%TD*%
M02*
