%TF.GenerationSoftware,KiCad,Pcbnew,9.0.0*%
%TF.CreationDate,2025-07-15T20:53:44+01:00*%
%TF.ProjectId,debug,64656275-672e-46b6-9963-61645f706362,rev?*%
%TF.SameCoordinates,Original*%
%TF.FileFunction,Legend,Bot*%
%TF.FilePolarity,Positive*%
%FSLAX46Y46*%
G04 Gerber Fmt 4.6, Leading zero omitted, Abs format (unit mm)*
G04 Created by KiCad (PCBNEW 9.0.0) date 2025-07-15 20:53:44*
%MOMM*%
%LPD*%
G01*
G04 APERTURE LIST*
%ADD10C,0.150000*%
%ADD11C,0.120000*%
G04 APERTURE END LIST*
D10*
X188311666Y-92834819D02*
X188644999Y-92358628D01*
X188883094Y-92834819D02*
X188883094Y-91834819D01*
X188883094Y-91834819D02*
X188502142Y-91834819D01*
X188502142Y-91834819D02*
X188406904Y-91882438D01*
X188406904Y-91882438D02*
X188359285Y-91930057D01*
X188359285Y-91930057D02*
X188311666Y-92025295D01*
X188311666Y-92025295D02*
X188311666Y-92168152D01*
X188311666Y-92168152D02*
X188359285Y-92263390D01*
X188359285Y-92263390D02*
X188406904Y-92311009D01*
X188406904Y-92311009D02*
X188502142Y-92358628D01*
X188502142Y-92358628D02*
X188883094Y-92358628D01*
X187930713Y-91930057D02*
X187883094Y-91882438D01*
X187883094Y-91882438D02*
X187787856Y-91834819D01*
X187787856Y-91834819D02*
X187549761Y-91834819D01*
X187549761Y-91834819D02*
X187454523Y-91882438D01*
X187454523Y-91882438D02*
X187406904Y-91930057D01*
X187406904Y-91930057D02*
X187359285Y-92025295D01*
X187359285Y-92025295D02*
X187359285Y-92120533D01*
X187359285Y-92120533D02*
X187406904Y-92263390D01*
X187406904Y-92263390D02*
X187978332Y-92834819D01*
X187978332Y-92834819D02*
X187359285Y-92834819D01*
X188311666Y-100834819D02*
X188644999Y-100358628D01*
X188883094Y-100834819D02*
X188883094Y-99834819D01*
X188883094Y-99834819D02*
X188502142Y-99834819D01*
X188502142Y-99834819D02*
X188406904Y-99882438D01*
X188406904Y-99882438D02*
X188359285Y-99930057D01*
X188359285Y-99930057D02*
X188311666Y-100025295D01*
X188311666Y-100025295D02*
X188311666Y-100168152D01*
X188311666Y-100168152D02*
X188359285Y-100263390D01*
X188359285Y-100263390D02*
X188406904Y-100311009D01*
X188406904Y-100311009D02*
X188502142Y-100358628D01*
X188502142Y-100358628D02*
X188883094Y-100358628D01*
X187454523Y-100168152D02*
X187454523Y-100834819D01*
X187692618Y-99787200D02*
X187930713Y-100501485D01*
X187930713Y-100501485D02*
X187311666Y-100501485D01*
X184778333Y-91854819D02*
X184778333Y-92569104D01*
X184778333Y-92569104D02*
X184825952Y-92711961D01*
X184825952Y-92711961D02*
X184921190Y-92807200D01*
X184921190Y-92807200D02*
X185064047Y-92854819D01*
X185064047Y-92854819D02*
X185159285Y-92854819D01*
X184302142Y-92854819D02*
X184302142Y-91854819D01*
X184302142Y-91854819D02*
X183921190Y-91854819D01*
X183921190Y-91854819D02*
X183825952Y-91902438D01*
X183825952Y-91902438D02*
X183778333Y-91950057D01*
X183778333Y-91950057D02*
X183730714Y-92045295D01*
X183730714Y-92045295D02*
X183730714Y-92188152D01*
X183730714Y-92188152D02*
X183778333Y-92283390D01*
X183778333Y-92283390D02*
X183825952Y-92331009D01*
X183825952Y-92331009D02*
X183921190Y-92378628D01*
X183921190Y-92378628D02*
X184302142Y-92378628D01*
X183349761Y-91950057D02*
X183302142Y-91902438D01*
X183302142Y-91902438D02*
X183206904Y-91854819D01*
X183206904Y-91854819D02*
X182968809Y-91854819D01*
X182968809Y-91854819D02*
X182873571Y-91902438D01*
X182873571Y-91902438D02*
X182825952Y-91950057D01*
X182825952Y-91950057D02*
X182778333Y-92045295D01*
X182778333Y-92045295D02*
X182778333Y-92140533D01*
X182778333Y-92140533D02*
X182825952Y-92283390D01*
X182825952Y-92283390D02*
X183397380Y-92854819D01*
X183397380Y-92854819D02*
X182778333Y-92854819D01*
X184778333Y-87854819D02*
X184778333Y-88569104D01*
X184778333Y-88569104D02*
X184825952Y-88711961D01*
X184825952Y-88711961D02*
X184921190Y-88807200D01*
X184921190Y-88807200D02*
X185064047Y-88854819D01*
X185064047Y-88854819D02*
X185159285Y-88854819D01*
X184302142Y-88854819D02*
X184302142Y-87854819D01*
X184302142Y-87854819D02*
X183921190Y-87854819D01*
X183921190Y-87854819D02*
X183825952Y-87902438D01*
X183825952Y-87902438D02*
X183778333Y-87950057D01*
X183778333Y-87950057D02*
X183730714Y-88045295D01*
X183730714Y-88045295D02*
X183730714Y-88188152D01*
X183730714Y-88188152D02*
X183778333Y-88283390D01*
X183778333Y-88283390D02*
X183825952Y-88331009D01*
X183825952Y-88331009D02*
X183921190Y-88378628D01*
X183921190Y-88378628D02*
X184302142Y-88378628D01*
X182778333Y-88854819D02*
X183349761Y-88854819D01*
X183064047Y-88854819D02*
X183064047Y-87854819D01*
X183064047Y-87854819D02*
X183159285Y-87997676D01*
X183159285Y-87997676D02*
X183254523Y-88092914D01*
X183254523Y-88092914D02*
X183349761Y-88140533D01*
X188311666Y-96834819D02*
X188644999Y-96358628D01*
X188883094Y-96834819D02*
X188883094Y-95834819D01*
X188883094Y-95834819D02*
X188502142Y-95834819D01*
X188502142Y-95834819D02*
X188406904Y-95882438D01*
X188406904Y-95882438D02*
X188359285Y-95930057D01*
X188359285Y-95930057D02*
X188311666Y-96025295D01*
X188311666Y-96025295D02*
X188311666Y-96168152D01*
X188311666Y-96168152D02*
X188359285Y-96263390D01*
X188359285Y-96263390D02*
X188406904Y-96311009D01*
X188406904Y-96311009D02*
X188502142Y-96358628D01*
X188502142Y-96358628D02*
X188883094Y-96358628D01*
X187978332Y-95834819D02*
X187359285Y-95834819D01*
X187359285Y-95834819D02*
X187692618Y-96215771D01*
X187692618Y-96215771D02*
X187549761Y-96215771D01*
X187549761Y-96215771D02*
X187454523Y-96263390D01*
X187454523Y-96263390D02*
X187406904Y-96311009D01*
X187406904Y-96311009D02*
X187359285Y-96406247D01*
X187359285Y-96406247D02*
X187359285Y-96644342D01*
X187359285Y-96644342D02*
X187406904Y-96739580D01*
X187406904Y-96739580D02*
X187454523Y-96787200D01*
X187454523Y-96787200D02*
X187549761Y-96834819D01*
X187549761Y-96834819D02*
X187835475Y-96834819D01*
X187835475Y-96834819D02*
X187930713Y-96787200D01*
X187930713Y-96787200D02*
X187978332Y-96739580D01*
X172763333Y-121774819D02*
X172763333Y-122489104D01*
X172763333Y-122489104D02*
X172810952Y-122631961D01*
X172810952Y-122631961D02*
X172906190Y-122727200D01*
X172906190Y-122727200D02*
X173049047Y-122774819D01*
X173049047Y-122774819D02*
X173144285Y-122774819D01*
X172287142Y-122774819D02*
X172287142Y-121774819D01*
X172287142Y-121774819D02*
X171906190Y-121774819D01*
X171906190Y-121774819D02*
X171810952Y-121822438D01*
X171810952Y-121822438D02*
X171763333Y-121870057D01*
X171763333Y-121870057D02*
X171715714Y-121965295D01*
X171715714Y-121965295D02*
X171715714Y-122108152D01*
X171715714Y-122108152D02*
X171763333Y-122203390D01*
X171763333Y-122203390D02*
X171810952Y-122251009D01*
X171810952Y-122251009D02*
X171906190Y-122298628D01*
X171906190Y-122298628D02*
X172287142Y-122298628D01*
X171382380Y-121774819D02*
X170715714Y-121774819D01*
X170715714Y-121774819D02*
X171144285Y-122774819D01*
X184778333Y-107854819D02*
X184778333Y-108569104D01*
X184778333Y-108569104D02*
X184825952Y-108711961D01*
X184825952Y-108711961D02*
X184921190Y-108807200D01*
X184921190Y-108807200D02*
X185064047Y-108854819D01*
X185064047Y-108854819D02*
X185159285Y-108854819D01*
X184302142Y-108854819D02*
X184302142Y-107854819D01*
X184302142Y-107854819D02*
X183921190Y-107854819D01*
X183921190Y-107854819D02*
X183825952Y-107902438D01*
X183825952Y-107902438D02*
X183778333Y-107950057D01*
X183778333Y-107950057D02*
X183730714Y-108045295D01*
X183730714Y-108045295D02*
X183730714Y-108188152D01*
X183730714Y-108188152D02*
X183778333Y-108283390D01*
X183778333Y-108283390D02*
X183825952Y-108331009D01*
X183825952Y-108331009D02*
X183921190Y-108378628D01*
X183921190Y-108378628D02*
X184302142Y-108378628D01*
X182873571Y-107854819D02*
X183064047Y-107854819D01*
X183064047Y-107854819D02*
X183159285Y-107902438D01*
X183159285Y-107902438D02*
X183206904Y-107950057D01*
X183206904Y-107950057D02*
X183302142Y-108092914D01*
X183302142Y-108092914D02*
X183349761Y-108283390D01*
X183349761Y-108283390D02*
X183349761Y-108664342D01*
X183349761Y-108664342D02*
X183302142Y-108759580D01*
X183302142Y-108759580D02*
X183254523Y-108807200D01*
X183254523Y-108807200D02*
X183159285Y-108854819D01*
X183159285Y-108854819D02*
X182968809Y-108854819D01*
X182968809Y-108854819D02*
X182873571Y-108807200D01*
X182873571Y-108807200D02*
X182825952Y-108759580D01*
X182825952Y-108759580D02*
X182778333Y-108664342D01*
X182778333Y-108664342D02*
X182778333Y-108426247D01*
X182778333Y-108426247D02*
X182825952Y-108331009D01*
X182825952Y-108331009D02*
X182873571Y-108283390D01*
X182873571Y-108283390D02*
X182968809Y-108235771D01*
X182968809Y-108235771D02*
X183159285Y-108235771D01*
X183159285Y-108235771D02*
X183254523Y-108283390D01*
X183254523Y-108283390D02*
X183302142Y-108331009D01*
X183302142Y-108331009D02*
X183349761Y-108426247D01*
X188311666Y-88834819D02*
X188644999Y-88358628D01*
X188883094Y-88834819D02*
X188883094Y-87834819D01*
X188883094Y-87834819D02*
X188502142Y-87834819D01*
X188502142Y-87834819D02*
X188406904Y-87882438D01*
X188406904Y-87882438D02*
X188359285Y-87930057D01*
X188359285Y-87930057D02*
X188311666Y-88025295D01*
X188311666Y-88025295D02*
X188311666Y-88168152D01*
X188311666Y-88168152D02*
X188359285Y-88263390D01*
X188359285Y-88263390D02*
X188406904Y-88311009D01*
X188406904Y-88311009D02*
X188502142Y-88358628D01*
X188502142Y-88358628D02*
X188883094Y-88358628D01*
X187359285Y-88834819D02*
X187930713Y-88834819D01*
X187644999Y-88834819D02*
X187644999Y-87834819D01*
X187644999Y-87834819D02*
X187740237Y-87977676D01*
X187740237Y-87977676D02*
X187835475Y-88072914D01*
X187835475Y-88072914D02*
X187930713Y-88120533D01*
X184778333Y-95854819D02*
X184778333Y-96569104D01*
X184778333Y-96569104D02*
X184825952Y-96711961D01*
X184825952Y-96711961D02*
X184921190Y-96807200D01*
X184921190Y-96807200D02*
X185064047Y-96854819D01*
X185064047Y-96854819D02*
X185159285Y-96854819D01*
X184302142Y-96854819D02*
X184302142Y-95854819D01*
X184302142Y-95854819D02*
X183921190Y-95854819D01*
X183921190Y-95854819D02*
X183825952Y-95902438D01*
X183825952Y-95902438D02*
X183778333Y-95950057D01*
X183778333Y-95950057D02*
X183730714Y-96045295D01*
X183730714Y-96045295D02*
X183730714Y-96188152D01*
X183730714Y-96188152D02*
X183778333Y-96283390D01*
X183778333Y-96283390D02*
X183825952Y-96331009D01*
X183825952Y-96331009D02*
X183921190Y-96378628D01*
X183921190Y-96378628D02*
X184302142Y-96378628D01*
X183397380Y-95854819D02*
X182778333Y-95854819D01*
X182778333Y-95854819D02*
X183111666Y-96235771D01*
X183111666Y-96235771D02*
X182968809Y-96235771D01*
X182968809Y-96235771D02*
X182873571Y-96283390D01*
X182873571Y-96283390D02*
X182825952Y-96331009D01*
X182825952Y-96331009D02*
X182778333Y-96426247D01*
X182778333Y-96426247D02*
X182778333Y-96664342D01*
X182778333Y-96664342D02*
X182825952Y-96759580D01*
X182825952Y-96759580D02*
X182873571Y-96807200D01*
X182873571Y-96807200D02*
X182968809Y-96854819D01*
X182968809Y-96854819D02*
X183254523Y-96854819D01*
X183254523Y-96854819D02*
X183349761Y-96807200D01*
X183349761Y-96807200D02*
X183397380Y-96759580D01*
X188311666Y-108834819D02*
X188644999Y-108358628D01*
X188883094Y-108834819D02*
X188883094Y-107834819D01*
X188883094Y-107834819D02*
X188502142Y-107834819D01*
X188502142Y-107834819D02*
X188406904Y-107882438D01*
X188406904Y-107882438D02*
X188359285Y-107930057D01*
X188359285Y-107930057D02*
X188311666Y-108025295D01*
X188311666Y-108025295D02*
X188311666Y-108168152D01*
X188311666Y-108168152D02*
X188359285Y-108263390D01*
X188359285Y-108263390D02*
X188406904Y-108311009D01*
X188406904Y-108311009D02*
X188502142Y-108358628D01*
X188502142Y-108358628D02*
X188883094Y-108358628D01*
X187454523Y-107834819D02*
X187644999Y-107834819D01*
X187644999Y-107834819D02*
X187740237Y-107882438D01*
X187740237Y-107882438D02*
X187787856Y-107930057D01*
X187787856Y-107930057D02*
X187883094Y-108072914D01*
X187883094Y-108072914D02*
X187930713Y-108263390D01*
X187930713Y-108263390D02*
X187930713Y-108644342D01*
X187930713Y-108644342D02*
X187883094Y-108739580D01*
X187883094Y-108739580D02*
X187835475Y-108787200D01*
X187835475Y-108787200D02*
X187740237Y-108834819D01*
X187740237Y-108834819D02*
X187549761Y-108834819D01*
X187549761Y-108834819D02*
X187454523Y-108787200D01*
X187454523Y-108787200D02*
X187406904Y-108739580D01*
X187406904Y-108739580D02*
X187359285Y-108644342D01*
X187359285Y-108644342D02*
X187359285Y-108406247D01*
X187359285Y-108406247D02*
X187406904Y-108311009D01*
X187406904Y-108311009D02*
X187454523Y-108263390D01*
X187454523Y-108263390D02*
X187549761Y-108215771D01*
X187549761Y-108215771D02*
X187740237Y-108215771D01*
X187740237Y-108215771D02*
X187835475Y-108263390D01*
X187835475Y-108263390D02*
X187883094Y-108311009D01*
X187883094Y-108311009D02*
X187930713Y-108406247D01*
X184778333Y-103854819D02*
X184778333Y-104569104D01*
X184778333Y-104569104D02*
X184825952Y-104711961D01*
X184825952Y-104711961D02*
X184921190Y-104807200D01*
X184921190Y-104807200D02*
X185064047Y-104854819D01*
X185064047Y-104854819D02*
X185159285Y-104854819D01*
X184302142Y-104854819D02*
X184302142Y-103854819D01*
X184302142Y-103854819D02*
X183921190Y-103854819D01*
X183921190Y-103854819D02*
X183825952Y-103902438D01*
X183825952Y-103902438D02*
X183778333Y-103950057D01*
X183778333Y-103950057D02*
X183730714Y-104045295D01*
X183730714Y-104045295D02*
X183730714Y-104188152D01*
X183730714Y-104188152D02*
X183778333Y-104283390D01*
X183778333Y-104283390D02*
X183825952Y-104331009D01*
X183825952Y-104331009D02*
X183921190Y-104378628D01*
X183921190Y-104378628D02*
X184302142Y-104378628D01*
X182825952Y-103854819D02*
X183302142Y-103854819D01*
X183302142Y-103854819D02*
X183349761Y-104331009D01*
X183349761Y-104331009D02*
X183302142Y-104283390D01*
X183302142Y-104283390D02*
X183206904Y-104235771D01*
X183206904Y-104235771D02*
X182968809Y-104235771D01*
X182968809Y-104235771D02*
X182873571Y-104283390D01*
X182873571Y-104283390D02*
X182825952Y-104331009D01*
X182825952Y-104331009D02*
X182778333Y-104426247D01*
X182778333Y-104426247D02*
X182778333Y-104664342D01*
X182778333Y-104664342D02*
X182825952Y-104759580D01*
X182825952Y-104759580D02*
X182873571Y-104807200D01*
X182873571Y-104807200D02*
X182968809Y-104854819D01*
X182968809Y-104854819D02*
X183206904Y-104854819D01*
X183206904Y-104854819D02*
X183302142Y-104807200D01*
X183302142Y-104807200D02*
X183349761Y-104759580D01*
X188311666Y-104834819D02*
X188644999Y-104358628D01*
X188883094Y-104834819D02*
X188883094Y-103834819D01*
X188883094Y-103834819D02*
X188502142Y-103834819D01*
X188502142Y-103834819D02*
X188406904Y-103882438D01*
X188406904Y-103882438D02*
X188359285Y-103930057D01*
X188359285Y-103930057D02*
X188311666Y-104025295D01*
X188311666Y-104025295D02*
X188311666Y-104168152D01*
X188311666Y-104168152D02*
X188359285Y-104263390D01*
X188359285Y-104263390D02*
X188406904Y-104311009D01*
X188406904Y-104311009D02*
X188502142Y-104358628D01*
X188502142Y-104358628D02*
X188883094Y-104358628D01*
X187406904Y-103834819D02*
X187883094Y-103834819D01*
X187883094Y-103834819D02*
X187930713Y-104311009D01*
X187930713Y-104311009D02*
X187883094Y-104263390D01*
X187883094Y-104263390D02*
X187787856Y-104215771D01*
X187787856Y-104215771D02*
X187549761Y-104215771D01*
X187549761Y-104215771D02*
X187454523Y-104263390D01*
X187454523Y-104263390D02*
X187406904Y-104311009D01*
X187406904Y-104311009D02*
X187359285Y-104406247D01*
X187359285Y-104406247D02*
X187359285Y-104644342D01*
X187359285Y-104644342D02*
X187406904Y-104739580D01*
X187406904Y-104739580D02*
X187454523Y-104787200D01*
X187454523Y-104787200D02*
X187549761Y-104834819D01*
X187549761Y-104834819D02*
X187787856Y-104834819D01*
X187787856Y-104834819D02*
X187883094Y-104787200D01*
X187883094Y-104787200D02*
X187930713Y-104739580D01*
X184778333Y-99854819D02*
X184778333Y-100569104D01*
X184778333Y-100569104D02*
X184825952Y-100711961D01*
X184825952Y-100711961D02*
X184921190Y-100807200D01*
X184921190Y-100807200D02*
X185064047Y-100854819D01*
X185064047Y-100854819D02*
X185159285Y-100854819D01*
X184302142Y-100854819D02*
X184302142Y-99854819D01*
X184302142Y-99854819D02*
X183921190Y-99854819D01*
X183921190Y-99854819D02*
X183825952Y-99902438D01*
X183825952Y-99902438D02*
X183778333Y-99950057D01*
X183778333Y-99950057D02*
X183730714Y-100045295D01*
X183730714Y-100045295D02*
X183730714Y-100188152D01*
X183730714Y-100188152D02*
X183778333Y-100283390D01*
X183778333Y-100283390D02*
X183825952Y-100331009D01*
X183825952Y-100331009D02*
X183921190Y-100378628D01*
X183921190Y-100378628D02*
X184302142Y-100378628D01*
X182873571Y-100188152D02*
X182873571Y-100854819D01*
X183111666Y-99807200D02*
X183349761Y-100521485D01*
X183349761Y-100521485D02*
X182730714Y-100521485D01*
D11*
%TO.C,R2*%
X188872064Y-93290000D02*
X187417936Y-93290000D01*
X188872064Y-95110000D02*
X187417936Y-95110000D01*
%TO.C,R4*%
X188872064Y-101290000D02*
X187417936Y-101290000D01*
X188872064Y-103110000D02*
X187417936Y-103110000D01*
%TO.C,JP2*%
X182545000Y-93900000D02*
X182545000Y-94500000D01*
X183245000Y-95200000D02*
X184645000Y-95200000D01*
X184645000Y-93200000D02*
X183245000Y-93200000D01*
X185345000Y-94500000D02*
X185345000Y-93900000D01*
X182545000Y-93900000D02*
G75*
G02*
X183245000Y-93200000I700000J0D01*
G01*
X183245000Y-95200000D02*
G75*
G02*
X182545000Y-94500000I0J700000D01*
G01*
X184645000Y-93200000D02*
G75*
G02*
X185345000Y-93900000I1J-699999D01*
G01*
X185345000Y-94500000D02*
G75*
G02*
X184645000Y-95200000I-699999J-1D01*
G01*
%TO.C,JP1*%
X182545000Y-89900000D02*
X182545000Y-90500000D01*
X183245000Y-91200000D02*
X184645000Y-91200000D01*
X184645000Y-89200000D02*
X183245000Y-89200000D01*
X185345000Y-90500000D02*
X185345000Y-89900000D01*
X182545000Y-89900000D02*
G75*
G02*
X183245000Y-89200000I700000J0D01*
G01*
X183245000Y-91200000D02*
G75*
G02*
X182545000Y-90500000I0J700000D01*
G01*
X184645000Y-89200000D02*
G75*
G02*
X185345000Y-89900000I1J-699999D01*
G01*
X185345000Y-90500000D02*
G75*
G02*
X184645000Y-91200000I-699999J-1D01*
G01*
%TO.C,R3*%
X188872064Y-97290000D02*
X187417936Y-97290000D01*
X188872064Y-99110000D02*
X187417936Y-99110000D01*
%TO.C,JP7*%
X170530000Y-120220000D02*
X170530000Y-120820000D01*
X171230000Y-121520000D02*
X172630000Y-121520000D01*
X172630000Y-119520000D02*
X171230000Y-119520000D01*
X173330000Y-120820000D02*
X173330000Y-120220000D01*
X170530000Y-120220000D02*
G75*
G02*
X171230000Y-119520000I699999J1D01*
G01*
X171230000Y-121520000D02*
G75*
G02*
X170530000Y-120820000I-1J699999D01*
G01*
X172630000Y-119520000D02*
G75*
G02*
X173330000Y-120220000I0J-700000D01*
G01*
X173330000Y-120820000D02*
G75*
G02*
X172630000Y-121520000I-700000J0D01*
G01*
%TO.C,JP6*%
X182545000Y-109900000D02*
X182545000Y-110500000D01*
X183245000Y-111200000D02*
X184645000Y-111200000D01*
X184645000Y-109200000D02*
X183245000Y-109200000D01*
X185345000Y-110500000D02*
X185345000Y-109900000D01*
X182545000Y-109900000D02*
G75*
G02*
X183245000Y-109200000I700000J0D01*
G01*
X183245000Y-111200000D02*
G75*
G02*
X182545000Y-110500000I0J700000D01*
G01*
X184645000Y-109200000D02*
G75*
G02*
X185345000Y-109900000I1J-699999D01*
G01*
X185345000Y-110500000D02*
G75*
G02*
X184645000Y-111200000I-699999J-1D01*
G01*
%TO.C,R1*%
X188872064Y-89290000D02*
X187417936Y-89290000D01*
X188872064Y-91110000D02*
X187417936Y-91110000D01*
%TO.C,JP3*%
X182545000Y-97900000D02*
X182545000Y-98500000D01*
X183245000Y-99200000D02*
X184645000Y-99200000D01*
X184645000Y-97200000D02*
X183245000Y-97200000D01*
X185345000Y-98500000D02*
X185345000Y-97900000D01*
X182545000Y-97900000D02*
G75*
G02*
X183245000Y-97200000I700000J0D01*
G01*
X183245000Y-99200000D02*
G75*
G02*
X182545000Y-98500000I0J700000D01*
G01*
X184645000Y-97200000D02*
G75*
G02*
X185345000Y-97900000I1J-699999D01*
G01*
X185345000Y-98500000D02*
G75*
G02*
X184645000Y-99200000I-699999J-1D01*
G01*
%TO.C,R6*%
X188872064Y-109290000D02*
X187417936Y-109290000D01*
X188872064Y-111110000D02*
X187417936Y-111110000D01*
%TO.C,JP5*%
X182545000Y-105900000D02*
X182545000Y-106500000D01*
X183245000Y-107200000D02*
X184645000Y-107200000D01*
X184645000Y-105200000D02*
X183245000Y-105200000D01*
X185345000Y-106500000D02*
X185345000Y-105900000D01*
X182545000Y-105900000D02*
G75*
G02*
X183245000Y-105200000I700000J0D01*
G01*
X183245000Y-107200000D02*
G75*
G02*
X182545000Y-106500000I0J700000D01*
G01*
X184645000Y-105200000D02*
G75*
G02*
X185345000Y-105900000I1J-699999D01*
G01*
X185345000Y-106500000D02*
G75*
G02*
X184645000Y-107200000I-699999J-1D01*
G01*
%TO.C,R5*%
X188872064Y-105290000D02*
X187417936Y-105290000D01*
X188872064Y-107110000D02*
X187417936Y-107110000D01*
%TO.C,JP4*%
X182545000Y-101900000D02*
X182545000Y-102500000D01*
X183245000Y-103200000D02*
X184645000Y-103200000D01*
X184645000Y-101200000D02*
X183245000Y-101200000D01*
X185345000Y-102500000D02*
X185345000Y-101900000D01*
X182545000Y-101900000D02*
G75*
G02*
X183245000Y-101200000I700000J0D01*
G01*
X183245000Y-103200000D02*
G75*
G02*
X182545000Y-102500000I0J700000D01*
G01*
X184645000Y-101200000D02*
G75*
G02*
X185345000Y-101900000I1J-699999D01*
G01*
X185345000Y-102500000D02*
G75*
G02*
X184645000Y-103200000I-699999J-1D01*
G01*
%TD*%
M02*
