%TF.GenerationSoftware,KiCad,Pcbnew,8.0.6*%
%TF.CreationDate,2024-12-14T19:09:49+00:00*%
%TF.ProjectId,micro,6d696372-6f2e-46b6-9963-61645f706362,rev?*%
%TF.SameCoordinates,Original*%
%TF.FileFunction,Paste,Top*%
%TF.FilePolarity,Positive*%
%FSLAX46Y46*%
G04 Gerber Fmt 4.6, Leading zero omitted, Abs format (unit mm)*
G04 Created by KiCad (PCBNEW 8.0.6) date 2024-12-14 19:09:49*
%MOMM*%
%LPD*%
G01*
G04 APERTURE LIST*
G04 Aperture macros list*
%AMRoundRect*
0 Rectangle with rounded corners*
0 $1 Rounding radius*
0 $2 $3 $4 $5 $6 $7 $8 $9 X,Y pos of 4 corners*
0 Add a 4 corners polygon primitive as box body*
4,1,4,$2,$3,$4,$5,$6,$7,$8,$9,$2,$3,0*
0 Add four circle primitives for the rounded corners*
1,1,$1+$1,$2,$3*
1,1,$1+$1,$4,$5*
1,1,$1+$1,$6,$7*
1,1,$1+$1,$8,$9*
0 Add four rect primitives between the rounded corners*
20,1,$1+$1,$2,$3,$4,$5,0*
20,1,$1+$1,$4,$5,$6,$7,0*
20,1,$1+$1,$6,$7,$8,$9,0*
20,1,$1+$1,$8,$9,$2,$3,0*%
G04 Aperture macros list end*
%ADD10RoundRect,0.250000X0.400000X0.625000X-0.400000X0.625000X-0.400000X-0.625000X0.400000X-0.625000X0*%
%ADD11RoundRect,0.250000X-0.400000X-0.625000X0.400000X-0.625000X0.400000X0.625000X-0.400000X0.625000X0*%
%ADD12RoundRect,0.150000X-0.587500X-0.150000X0.587500X-0.150000X0.587500X0.150000X-0.587500X0.150000X0*%
%ADD13RoundRect,0.250000X-0.625000X0.400000X-0.625000X-0.400000X0.625000X-0.400000X0.625000X0.400000X0*%
%ADD14RoundRect,0.200000X-0.200000X0.750000X-0.200000X-0.750000X0.200000X-0.750000X0.200000X0.750000X0*%
%ADD15RoundRect,0.250000X0.625000X-0.400000X0.625000X0.400000X-0.625000X0.400000X-0.625000X-0.400000X0*%
%ADD16RoundRect,0.200000X0.200000X-0.750000X0.200000X0.750000X-0.200000X0.750000X-0.200000X-0.750000X0*%
%ADD17RoundRect,0.200000X-0.750000X-0.200000X0.750000X-0.200000X0.750000X0.200000X-0.750000X0.200000X0*%
%ADD18RoundRect,0.200000X0.750000X0.200000X-0.750000X0.200000X-0.750000X-0.200000X0.750000X-0.200000X0*%
%ADD19RoundRect,0.150000X-0.875000X-0.150000X0.875000X-0.150000X0.875000X0.150000X-0.875000X0.150000X0*%
%ADD20RoundRect,0.250000X-0.412500X-0.650000X0.412500X-0.650000X0.412500X0.650000X-0.412500X0.650000X0*%
%ADD21RoundRect,0.250000X0.650000X-0.412500X0.650000X0.412500X-0.650000X0.412500X-0.650000X-0.412500X0*%
%ADD22RoundRect,0.250000X-1.500000X-0.550000X1.500000X-0.550000X1.500000X0.550000X-1.500000X0.550000X0*%
%ADD23RoundRect,0.250000X1.500000X0.550000X-1.500000X0.550000X-1.500000X-0.550000X1.500000X-0.550000X0*%
%ADD24RoundRect,0.150000X0.150000X-0.587500X0.150000X0.587500X-0.150000X0.587500X-0.150000X-0.587500X0*%
G04 APERTURE END LIST*
D10*
%TO.C,R108*%
X180537613Y-44600000D03*
X177437613Y-44600000D03*
%TD*%
D11*
%TO.C,R107*%
X172537613Y-49400000D03*
X175637613Y-49400000D03*
%TD*%
D10*
%TO.C,R109*%
X171737613Y-45600000D03*
X168637613Y-45600000D03*
%TD*%
D12*
%TO.C,Q68*%
X175512613Y-46550000D03*
X173637613Y-47500000D03*
X173637613Y-45600000D03*
%TD*%
%TO.C,Q67*%
X179437613Y-47500000D03*
X177562613Y-48450000D03*
X177562613Y-46550000D03*
%TD*%
D13*
%TO.C,R104*%
X174459994Y-138970000D03*
X174459994Y-142070000D03*
%TD*%
D10*
%TO.C,R95*%
X134900000Y-141000000D03*
X131800000Y-141000000D03*
%TD*%
D11*
%TO.C,R22*%
X163859993Y-55170000D03*
X166959993Y-55170000D03*
%TD*%
D13*
%TO.C,R56*%
X174459994Y-91470000D03*
X174459994Y-94570000D03*
%TD*%
%TO.C,R48*%
X129200000Y-91750000D03*
X129200000Y-94850000D03*
%TD*%
D14*
%TO.C,Q59*%
X127250000Y-141200000D03*
X125350000Y-141200000D03*
X126300000Y-144200000D03*
%TD*%
D15*
%TO.C,R66*%
X169059994Y-111420000D03*
X169059994Y-108320000D03*
%TD*%
D16*
%TO.C,Q39*%
X171009994Y-111570000D03*
X172909994Y-111570000D03*
X171959994Y-108570000D03*
%TD*%
D13*
%TO.C,R61*%
X137000000Y-108000000D03*
X137000000Y-111100000D03*
%TD*%
D14*
%TO.C,Q51*%
X127250000Y-128800000D03*
X125350000Y-128800000D03*
X126300000Y-131800000D03*
%TD*%
D13*
%TO.C,R49*%
X137000000Y-95600000D03*
X137000000Y-98700000D03*
%TD*%
D11*
%TO.C,R2*%
X144900000Y-151100000D03*
X148000000Y-151100000D03*
%TD*%
D13*
%TO.C,R73*%
X137000000Y-120400000D03*
X137000000Y-123500000D03*
%TD*%
D15*
%TO.C,R42*%
X169059994Y-87820000D03*
X169059994Y-84720000D03*
%TD*%
D13*
%TO.C,R44*%
X174459994Y-79670000D03*
X174459994Y-82770000D03*
%TD*%
%TO.C,R32*%
X174459994Y-67870000D03*
X174459994Y-70970000D03*
%TD*%
D11*
%TO.C,R89*%
X163359994Y-135570000D03*
X166459994Y-135570000D03*
%TD*%
D17*
%TO.C,Q2*%
X131600000Y-57050000D03*
X131600000Y-58950000D03*
X134600000Y-58000000D03*
%TD*%
D14*
%TO.C,Q43*%
X127250000Y-116400000D03*
X125350000Y-116400000D03*
X126300000Y-119400000D03*
%TD*%
D18*
%TO.C,Q24*%
X166659993Y-86220000D03*
X166659993Y-84320000D03*
X163659993Y-85270000D03*
%TD*%
%TO.C,Q42*%
X172059993Y-103920000D03*
X172059993Y-102020000D03*
X169059993Y-102970000D03*
%TD*%
D15*
%TO.C,R103*%
X161259994Y-143270000D03*
X161259994Y-140170000D03*
%TD*%
D13*
%TO.C,R92*%
X174459994Y-127070000D03*
X174459994Y-130170000D03*
%TD*%
D15*
%TO.C,R50*%
X123800000Y-99900000D03*
X123800000Y-96800000D03*
%TD*%
D17*
%TO.C,Q37*%
X131600000Y-109350000D03*
X131600000Y-111250000D03*
X134600000Y-110300000D03*
%TD*%
D10*
%TO.C,R21*%
X171859993Y-58970000D03*
X168759993Y-58970000D03*
%TD*%
D17*
%TO.C,Q14*%
X126200000Y-74800000D03*
X126200000Y-76700000D03*
X129200000Y-75750000D03*
%TD*%
D15*
%TO.C,R26*%
X123800000Y-75450000D03*
X123800000Y-72350000D03*
%TD*%
D14*
%TO.C,Q27*%
X127250000Y-91600000D03*
X125350000Y-91600000D03*
X126300000Y-94600000D03*
%TD*%
D11*
%TO.C,R34*%
X163859993Y-66970000D03*
X166959993Y-66970000D03*
%TD*%
D18*
%TO.C,Q64*%
X166659993Y-145520000D03*
X166659993Y-143620000D03*
X163659993Y-144570000D03*
%TD*%
D19*
%TO.C,U2*%
X144410000Y-129235000D03*
X144410000Y-130505000D03*
X144410000Y-131775000D03*
X144410000Y-133045000D03*
X144410000Y-134315000D03*
X144410000Y-135585000D03*
X144410000Y-136855000D03*
X144410000Y-138125000D03*
X144410000Y-139395000D03*
X144410000Y-140665000D03*
X144410000Y-141935000D03*
X144410000Y-143205000D03*
X144410000Y-144475000D03*
X144410000Y-145745000D03*
X153710000Y-145745000D03*
X153710000Y-144475000D03*
X153710000Y-143205000D03*
X153710000Y-141935000D03*
X153710000Y-140665000D03*
X153710000Y-139395000D03*
X153710000Y-138125000D03*
X153710000Y-136855000D03*
X153710000Y-135585000D03*
X153710000Y-134315000D03*
X153710000Y-133045000D03*
X153710000Y-131775000D03*
X153710000Y-130505000D03*
X153710000Y-129235000D03*
%TD*%
D15*
%TO.C,R18*%
X169059994Y-64220000D03*
X169059994Y-61120000D03*
%TD*%
D17*
%TO.C,Q53*%
X131600000Y-134150000D03*
X131600000Y-136050000D03*
X134600000Y-135100000D03*
%TD*%
D13*
%TO.C,R15*%
X164150000Y-43500000D03*
X164150000Y-46600000D03*
%TD*%
D10*
%TO.C,R33*%
X171859993Y-70770000D03*
X168759993Y-70770000D03*
%TD*%
%TO.C,R93*%
X171859993Y-129970000D03*
X168759993Y-129970000D03*
%TD*%
D11*
%TO.C,R63*%
X126400000Y-109400000D03*
X129500000Y-109400000D03*
%TD*%
%TO.C,R106*%
X163859993Y-138070000D03*
X166959993Y-138070000D03*
%TD*%
D16*
%TO.C,Q7*%
X171009994Y-64370000D03*
X172909994Y-64370000D03*
X171959994Y-61370000D03*
%TD*%
D15*
%TO.C,R10*%
X135200000Y-42850000D03*
X135200000Y-39750000D03*
%TD*%
D12*
%TO.C,Q6*%
X137325000Y-40450000D03*
X137325000Y-42350000D03*
X139200000Y-41400000D03*
%TD*%
D10*
%TO.C,R76*%
X134400000Y-125600000D03*
X131300000Y-125600000D03*
%TD*%
%TO.C,R35*%
X134900000Y-78900000D03*
X131800000Y-78900000D03*
%TD*%
%TO.C,R100*%
X134400000Y-150400000D03*
X131300000Y-150400000D03*
%TD*%
D17*
%TO.C,Q60*%
X131600000Y-142950000D03*
X131600000Y-144850000D03*
X134600000Y-143900000D03*
%TD*%
D11*
%TO.C,R58*%
X163859993Y-90570000D03*
X166959993Y-90570000D03*
%TD*%
D18*
%TO.C,Q66*%
X172059993Y-139620000D03*
X172059993Y-137720000D03*
X169059993Y-138670000D03*
%TD*%
D15*
%TO.C,R30*%
X169059994Y-76020000D03*
X169059994Y-72920000D03*
%TD*%
D11*
%TO.C,R87*%
X126400000Y-134200000D03*
X129500000Y-134200000D03*
%TD*%
D10*
%TO.C,R83*%
X134900000Y-128600000D03*
X131800000Y-128600000D03*
%TD*%
D18*
%TO.C,Q65*%
X166659993Y-141920000D03*
X166659993Y-140020000D03*
X163659993Y-140970000D03*
%TD*%
D15*
%TO.C,R102*%
X169059994Y-147120000D03*
X169059994Y-144020000D03*
%TD*%
%TO.C,R74*%
X123800000Y-124700000D03*
X123800000Y-121600000D03*
%TD*%
D17*
%TO.C,Q22*%
X126200000Y-86750000D03*
X126200000Y-88650000D03*
X129200000Y-87700000D03*
%TD*%
D20*
%TO.C,C5*%
X166250000Y-41400000D03*
X169375000Y-41400000D03*
%TD*%
D11*
%TO.C,R41*%
X163359994Y-88170000D03*
X166459994Y-88170000D03*
%TD*%
D17*
%TO.C,Q21*%
X131600000Y-84450000D03*
X131600000Y-86350000D03*
X134600000Y-85400000D03*
%TD*%
D16*
%TO.C,Q63*%
X171009994Y-147270000D03*
X172909994Y-147270000D03*
X171959994Y-144270000D03*
%TD*%
D17*
%TO.C,Q54*%
X126200000Y-136450000D03*
X126200000Y-138350000D03*
X129200000Y-137400000D03*
%TD*%
D18*
%TO.C,Q25*%
X166659993Y-82620000D03*
X166659993Y-80720000D03*
X163659993Y-81670000D03*
%TD*%
D10*
%TO.C,R69*%
X171859993Y-106170000D03*
X168759993Y-106170000D03*
%TD*%
D16*
%TO.C,Q47*%
X171009994Y-123620000D03*
X172909994Y-123620000D03*
X171959994Y-120620000D03*
%TD*%
D18*
%TO.C,Q10*%
X172059993Y-56720000D03*
X172059993Y-54820000D03*
X169059993Y-55770000D03*
%TD*%
%TO.C,Q40*%
X166659993Y-109820000D03*
X166659993Y-107920000D03*
X163659993Y-108870000D03*
%TD*%
D17*
%TO.C,Q13*%
X131600000Y-72500000D03*
X131600000Y-74400000D03*
X134600000Y-73450000D03*
%TD*%
D15*
%TO.C,R31*%
X161259994Y-72170000D03*
X161259994Y-69070000D03*
%TD*%
D21*
%TO.C,C4*%
X159200000Y-41350000D03*
X159200000Y-38225000D03*
%TD*%
D13*
%TO.C,R68*%
X174459994Y-103270000D03*
X174459994Y-106370000D03*
%TD*%
%TO.C,R36*%
X129200000Y-79250000D03*
X129200000Y-82350000D03*
%TD*%
%TO.C,R12*%
X161550000Y-43450000D03*
X161550000Y-46550000D03*
%TD*%
D18*
%TO.C,Q32*%
X166659993Y-98020000D03*
X166659993Y-96120000D03*
X163659993Y-97070000D03*
%TD*%
D11*
%TO.C,R29*%
X163359994Y-76370000D03*
X166459994Y-76370000D03*
%TD*%
D13*
%TO.C,R25*%
X137000000Y-71150000D03*
X137000000Y-74250000D03*
%TD*%
%TO.C,R97*%
X137000000Y-145200000D03*
X137000000Y-148300000D03*
%TD*%
D11*
%TO.C,R94*%
X163859993Y-126170000D03*
X166959993Y-126170000D03*
%TD*%
D10*
%TO.C,R40*%
X134400000Y-88300000D03*
X131300000Y-88300000D03*
%TD*%
D15*
%TO.C,R98*%
X123800000Y-149500000D03*
X123800000Y-146400000D03*
%TD*%
D10*
%TO.C,R88*%
X134400000Y-138000000D03*
X131300000Y-138000000D03*
%TD*%
%TO.C,R1*%
X153200000Y-151100000D03*
X150100000Y-151100000D03*
%TD*%
D17*
%TO.C,Q4*%
X126200000Y-62950000D03*
X126200000Y-64850000D03*
X129200000Y-63900000D03*
%TD*%
%TO.C,Q28*%
X131600000Y-93350000D03*
X131600000Y-95250000D03*
X134600000Y-94300000D03*
%TD*%
D10*
%TO.C,R23*%
X134900000Y-66950000D03*
X131800000Y-66950000D03*
%TD*%
D11*
%TO.C,R82*%
X163859993Y-114420000D03*
X166959993Y-114420000D03*
%TD*%
D13*
%TO.C,R11*%
X159200000Y-43200000D03*
X159200000Y-46300000D03*
%TD*%
%TO.C,R96*%
X129200000Y-141350000D03*
X129200000Y-144450000D03*
%TD*%
D17*
%TO.C,Q44*%
X131600000Y-118150000D03*
X131600000Y-120050000D03*
X134600000Y-119100000D03*
%TD*%
D15*
%TO.C,R55*%
X161259994Y-95770000D03*
X161259994Y-92670000D03*
%TD*%
D13*
%TO.C,R37*%
X137000000Y-83100000D03*
X137000000Y-86200000D03*
%TD*%
D18*
%TO.C,Q58*%
X172059993Y-127720000D03*
X172059993Y-125820000D03*
X169059993Y-126770000D03*
%TD*%
D11*
%TO.C,R65*%
X163359994Y-111770000D03*
X166459994Y-111770000D03*
%TD*%
D18*
%TO.C,Q26*%
X172059993Y-80320000D03*
X172059993Y-78420000D03*
X169059993Y-79370000D03*
%TD*%
D10*
%TO.C,R47*%
X134900000Y-91400000D03*
X131800000Y-91400000D03*
%TD*%
D13*
%TO.C,R16*%
X164150000Y-48400000D03*
X164150000Y-51500000D03*
%TD*%
%TO.C,R4*%
X129200000Y-55450000D03*
X129200000Y-58550000D03*
%TD*%
D15*
%TO.C,R19*%
X161259994Y-60370000D03*
X161259994Y-57270000D03*
%TD*%
D17*
%TO.C,Q30*%
X126200000Y-99250000D03*
X126200000Y-101150000D03*
X129200000Y-100200000D03*
%TD*%
D11*
%TO.C,R51*%
X126400000Y-97000000D03*
X129500000Y-97000000D03*
%TD*%
D17*
%TO.C,Q20*%
X131600000Y-80850000D03*
X131600000Y-82750000D03*
X134600000Y-81800000D03*
%TD*%
D13*
%TO.C,R24*%
X129200000Y-67300000D03*
X129200000Y-70400000D03*
%TD*%
D18*
%TO.C,Q16*%
X166659993Y-74420000D03*
X166659993Y-72520000D03*
X163659993Y-73470000D03*
%TD*%
D10*
%TO.C,R71*%
X134900000Y-116200000D03*
X131800000Y-116200000D03*
%TD*%
D11*
%TO.C,R70*%
X163859993Y-102370000D03*
X166959993Y-102370000D03*
%TD*%
%TO.C,R101*%
X163359994Y-147470000D03*
X166459994Y-147470000D03*
%TD*%
D18*
%TO.C,Q56*%
X166659993Y-133620000D03*
X166659993Y-131720000D03*
X163659993Y-132670000D03*
%TD*%
D17*
%TO.C,Q46*%
X126200000Y-124050000D03*
X126200000Y-125950000D03*
X129200000Y-125000000D03*
%TD*%
D18*
%TO.C,Q33*%
X166659993Y-94420000D03*
X166659993Y-92520000D03*
X163659993Y-93470000D03*
%TD*%
D13*
%TO.C,R85*%
X137000000Y-132800000D03*
X137000000Y-135900000D03*
%TD*%
D18*
%TO.C,Q9*%
X166659993Y-59020000D03*
X166659993Y-57120000D03*
X163659993Y-58070000D03*
%TD*%
D13*
%TO.C,R20*%
X174459994Y-56070000D03*
X174459994Y-59170000D03*
%TD*%
D11*
%TO.C,R46*%
X163859993Y-78770000D03*
X166959993Y-78770000D03*
%TD*%
%TO.C,R39*%
X126400000Y-84500000D03*
X129500000Y-84500000D03*
%TD*%
D17*
%TO.C,Q3*%
X131600000Y-60650000D03*
X131600000Y-62550000D03*
X134600000Y-61600000D03*
%TD*%
D15*
%TO.C,R79*%
X161259994Y-119620000D03*
X161259994Y-116520000D03*
%TD*%
D16*
%TO.C,Q23*%
X171009994Y-87970000D03*
X172909994Y-87970000D03*
X171959994Y-84970000D03*
%TD*%
D10*
%TO.C,R59*%
X134900000Y-103800000D03*
X131800000Y-103800000D03*
%TD*%
D15*
%TO.C,R90*%
X169059994Y-135220000D03*
X169059994Y-132120000D03*
%TD*%
D17*
%TO.C,Q36*%
X131600000Y-105750000D03*
X131600000Y-107650000D03*
X134600000Y-106700000D03*
%TD*%
D13*
%TO.C,R60*%
X129200000Y-104150000D03*
X129200000Y-107250000D03*
%TD*%
D18*
%TO.C,Q34*%
X172059993Y-92120000D03*
X172059993Y-90220000D03*
X169059993Y-91170000D03*
%TD*%
D15*
%TO.C,R86*%
X123800000Y-137100000D03*
X123800000Y-134000000D03*
%TD*%
D11*
%TO.C,R7*%
X126400000Y-60700000D03*
X129500000Y-60700000D03*
%TD*%
D13*
%TO.C,R13*%
X161550000Y-48400000D03*
X161550000Y-51500000D03*
%TD*%
D11*
%TO.C,R77*%
X163259994Y-123820000D03*
X166359994Y-123820000D03*
%TD*%
%TO.C,R75*%
X126400000Y-121800000D03*
X129500000Y-121800000D03*
%TD*%
D14*
%TO.C,Q19*%
X127250000Y-79100000D03*
X125350000Y-79100000D03*
X126300000Y-82100000D03*
%TD*%
D18*
%TO.C,Q18*%
X172059993Y-68520000D03*
X172059993Y-66620000D03*
X169059993Y-67570000D03*
%TD*%
D10*
%TO.C,R64*%
X134400000Y-113200000D03*
X131300000Y-113200000D03*
%TD*%
D11*
%TO.C,R27*%
X126400000Y-72550000D03*
X129500000Y-72550000D03*
%TD*%
D15*
%TO.C,R62*%
X123800000Y-112300000D03*
X123800000Y-109200000D03*
%TD*%
D10*
%TO.C,R57*%
X171859993Y-94370000D03*
X168759993Y-94370000D03*
%TD*%
D16*
%TO.C,Q55*%
X171009994Y-135370000D03*
X172909994Y-135370000D03*
X171959994Y-132370000D03*
%TD*%
D18*
%TO.C,Q57*%
X166659993Y-130020000D03*
X166659993Y-128120000D03*
X163659993Y-129070000D03*
%TD*%
D17*
%TO.C,Q45*%
X131600000Y-121750000D03*
X131600000Y-123650000D03*
X134600000Y-122700000D03*
%TD*%
D11*
%TO.C,R99*%
X126400000Y-146600000D03*
X129500000Y-146600000D03*
%TD*%
%TO.C,R9*%
X128300000Y-43800000D03*
X131400000Y-43800000D03*
%TD*%
D10*
%TO.C,R81*%
X171859993Y-118220000D03*
X168759993Y-118220000D03*
%TD*%
D14*
%TO.C,Q11*%
X127250000Y-67150000D03*
X125350000Y-67150000D03*
X126300000Y-70150000D03*
%TD*%
D18*
%TO.C,Q41*%
X166659993Y-106220000D03*
X166659993Y-104320000D03*
X163659993Y-105270000D03*
%TD*%
D17*
%TO.C,Q38*%
X126200000Y-111650000D03*
X126200000Y-113550000D03*
X129200000Y-112600000D03*
%TD*%
D18*
%TO.C,Q49*%
X166659993Y-118270000D03*
X166659993Y-116370000D03*
X163659993Y-117320000D03*
%TD*%
D13*
%TO.C,R5*%
X137000000Y-59300000D03*
X137000000Y-62400000D03*
%TD*%
D15*
%TO.C,R43*%
X161259994Y-83970000D03*
X161259994Y-80870000D03*
%TD*%
D10*
%TO.C,R105*%
X171859993Y-141870000D03*
X168759993Y-141870000D03*
%TD*%
D14*
%TO.C,Q35*%
X127250000Y-104000000D03*
X125350000Y-104000000D03*
X126300000Y-107000000D03*
%TD*%
D22*
%TO.C,C2*%
X134900000Y-47500000D03*
X140300000Y-47500000D03*
%TD*%
D10*
%TO.C,R45*%
X171859993Y-82570000D03*
X168759993Y-82570000D03*
%TD*%
%TO.C,R3*%
X134900000Y-55100000D03*
X131800000Y-55100000D03*
%TD*%
%TO.C,R8*%
X134400000Y-64500000D03*
X131300000Y-64500000D03*
%TD*%
D15*
%TO.C,R78*%
X169059994Y-123470000D03*
X169059994Y-120370000D03*
%TD*%
D11*
%TO.C,R14*%
X161300000Y-41400000D03*
X164400000Y-41400000D03*
%TD*%
D15*
%TO.C,R54*%
X169059994Y-99620000D03*
X169059994Y-96520000D03*
%TD*%
D13*
%TO.C,R84*%
X129200000Y-128950000D03*
X129200000Y-132050000D03*
%TD*%
D18*
%TO.C,Q8*%
X166659993Y-62620000D03*
X166659993Y-60720000D03*
X163659993Y-61670000D03*
%TD*%
D23*
%TO.C,C3*%
X155900000Y-47600000D03*
X150300000Y-47600000D03*
%TD*%
D15*
%TO.C,R38*%
X123800000Y-87400000D03*
X123800000Y-84300000D03*
%TD*%
D17*
%TO.C,Q52*%
X131600000Y-130550000D03*
X131600000Y-132450000D03*
X134600000Y-131500000D03*
%TD*%
D15*
%TO.C,R6*%
X123800000Y-63600000D03*
X123800000Y-60500000D03*
%TD*%
D10*
%TO.C,R28*%
X134400000Y-76350000D03*
X131300000Y-76350000D03*
%TD*%
D24*
%TO.C,Q5*%
X131350000Y-41675000D03*
X133250000Y-41675000D03*
X132300000Y-39800000D03*
%TD*%
D11*
%TO.C,R17*%
X163359994Y-64570000D03*
X166459994Y-64570000D03*
%TD*%
D21*
%TO.C,C1*%
X131700000Y-50425000D03*
X131700000Y-47300000D03*
%TD*%
D17*
%TO.C,Q62*%
X126200000Y-148850000D03*
X126200000Y-150750000D03*
X129200000Y-149800000D03*
%TD*%
D16*
%TO.C,Q31*%
X171009994Y-99770000D03*
X172909994Y-99770000D03*
X171959994Y-96770000D03*
%TD*%
D10*
%TO.C,R52*%
X134400000Y-100800000D03*
X131300000Y-100800000D03*
%TD*%
D14*
%TO.C,Q1*%
X127250000Y-55300000D03*
X125350000Y-55300000D03*
X126300000Y-58300000D03*
%TD*%
D18*
%TO.C,Q17*%
X166659993Y-70820000D03*
X166659993Y-68920000D03*
X163659993Y-69870000D03*
%TD*%
D17*
%TO.C,Q61*%
X131600000Y-146550000D03*
X131600000Y-148450000D03*
X134600000Y-147500000D03*
%TD*%
D13*
%TO.C,R80*%
X174459994Y-115320000D03*
X174459994Y-118420000D03*
%TD*%
D18*
%TO.C,Q48*%
X166659993Y-121870000D03*
X166659993Y-119970000D03*
X163659993Y-120920000D03*
%TD*%
D11*
%TO.C,R53*%
X163359994Y-99970000D03*
X166459994Y-99970000D03*
%TD*%
D15*
%TO.C,R67*%
X161259994Y-107570000D03*
X161259994Y-104470000D03*
%TD*%
D19*
%TO.C,U3*%
X144400000Y-55050000D03*
X144400000Y-56320000D03*
X144400000Y-57590000D03*
X144400000Y-58860000D03*
X144400000Y-60130000D03*
X144400000Y-61400000D03*
X144400000Y-62670000D03*
X144400000Y-63940000D03*
X144400000Y-65210000D03*
X144400000Y-66480000D03*
X144400000Y-67750000D03*
X144400000Y-69020000D03*
X144400000Y-70290000D03*
X144400000Y-71560000D03*
X153700000Y-71560000D03*
X153700000Y-70290000D03*
X153700000Y-69020000D03*
X153700000Y-67750000D03*
X153700000Y-66480000D03*
X153700000Y-65210000D03*
X153700000Y-63940000D03*
X153700000Y-62670000D03*
X153700000Y-61400000D03*
X153700000Y-60130000D03*
X153700000Y-58860000D03*
X153700000Y-57590000D03*
X153700000Y-56320000D03*
X153700000Y-55050000D03*
%TD*%
D17*
%TO.C,Q12*%
X131600000Y-68900000D03*
X131600000Y-70800000D03*
X134600000Y-69850000D03*
%TD*%
D16*
%TO.C,Q15*%
X171009994Y-76170000D03*
X172909994Y-76170000D03*
X171959994Y-73170000D03*
%TD*%
D15*
%TO.C,R91*%
X161259994Y-131370000D03*
X161259994Y-128270000D03*
%TD*%
D17*
%TO.C,Q29*%
X131600000Y-96950000D03*
X131600000Y-98850000D03*
X134600000Y-97900000D03*
%TD*%
D18*
%TO.C,Q50*%
X172059993Y-115970000D03*
X172059993Y-114070000D03*
X169059993Y-115020000D03*
%TD*%
D13*
%TO.C,R72*%
X129200000Y-116550000D03*
X129200000Y-119650000D03*
%TD*%
M02*
