M48
; DRILL file {KiCad 8.0.6} date 2024-12-14T19:09:52+0000
; FORMAT={-:-/ absolute / inch / decimal}
; #@! TF.CreationDate,2024-12-14T19:09:52+00:00
; #@! TF.GenerationSoftware,Kicad,Pcbnew,8.0.6
; #@! TF.FileFunction,Plated,1,2,PTH
FMAT,2
INCH
; #@! TA.AperFunction,Plated,PTH,ViaDrill
T1C0.0118
; #@! TA.AperFunction,Plated,PTH,ComponentDrill
T2C0.0197
; #@! TA.AperFunction,Plated,PTH,ComponentDrill
T3C0.0394
; #@! TA.AperFunction,Plated,PTH,ComponentDrill
T4C0.0400
%
G90
G05
T1
X4.7244Y-2.5197
X4.7244Y-2.5591
X4.7244Y-2.5984
X4.7244Y-2.6378
X4.7244Y-2.6772
X4.7244Y-2.7165
X4.7244Y-4.685
X4.7244Y-4.7244
X4.7244Y-4.7638
X4.7244Y-4.8031
X4.7244Y-4.8425
X4.7244Y-5.0
X4.7244Y-5.0394
X4.7244Y-5.0787
X4.7244Y-5.1181
X4.7244Y-5.1575
X4.7244Y-5.1969
X4.7244Y-5.2362
X4.7244Y-5.2756
X4.7244Y-5.315
X4.7244Y-5.3543
X4.7244Y-5.3937
X4.7638Y-2.4803
X4.7638Y-2.5197
X4.7638Y-2.5591
X4.7638Y-2.5984
X4.7638Y-2.6378
X4.7638Y-2.6772
X4.7638Y-4.685
X4.7638Y-4.7244
X4.7638Y-4.7638
X4.7638Y-4.8031
X4.7638Y-4.8425
X4.7638Y-4.8819
X4.7638Y-5.0394
X4.7638Y-5.0787
X4.7638Y-5.1181
X4.7638Y-5.1575
X4.7638Y-5.1969
X4.7638Y-5.2362
X4.7638Y-5.2756
X4.7638Y-5.315
X4.7638Y-5.3543
X4.7638Y-5.3937
X4.7638Y-5.4331
X4.8031Y-2.4409
X4.8031Y-2.4803
X4.8031Y-2.5197
X4.8031Y-2.5591
X4.8031Y-2.5984
X4.8031Y-2.6378
X4.8031Y-2.6772
X4.8031Y-3.622
X4.8031Y-3.6614
X4.8031Y-3.7008
X4.8031Y-3.7402
X4.8031Y-3.7795
X4.8031Y-3.8189
X4.8031Y-3.8583
X4.8031Y-3.8976
X4.8031Y-3.937
X4.8031Y-3.9764
X4.8031Y-4.0157
X4.8031Y-4.0551
X4.8031Y-4.0945
X4.8031Y-4.1339
X4.8031Y-4.2913
X4.8031Y-4.3307
X4.8031Y-4.3701
X4.8031Y-4.4094
X4.8031Y-4.4488
X4.8031Y-4.5669
X4.8031Y-4.6063
X4.8031Y-4.6457
X4.8031Y-4.685
X4.8031Y-4.7244
X4.8031Y-4.7638
X4.8031Y-4.8031
X4.8031Y-4.8425
X4.8031Y-4.8819
X4.8031Y-4.9213
X4.8031Y-5.0787
X4.8031Y-5.1181
X4.8031Y-5.1575
X4.8031Y-5.1969
X4.8031Y-5.2362
X4.8031Y-5.2756
X4.8031Y-5.315
X4.8031Y-5.3543
X4.8031Y-5.3937
X4.8031Y-5.4331
X4.8031Y-5.4724
X4.8425Y-2.5591
X4.8425Y-2.5984
X4.8425Y-2.6378
X4.8425Y-2.6772
X4.8425Y-3.6614
X4.8425Y-3.7008
X4.8425Y-3.7402
X4.8425Y-4.0157
X4.8425Y-4.0551
X4.8425Y-4.0945
X4.8425Y-4.1339
X4.8425Y-4.4882
X4.8425Y-4.6063
X4.8425Y-4.6457
X4.8425Y-4.685
X4.8425Y-4.7244
X4.8425Y-4.9606
X4.8425Y-5.1181
X4.8425Y-5.1575
X4.8425Y-5.1969
X4.8425Y-5.4724
X4.8425Y-5.5118
X4.878Y-3.5276
X4.8819Y-2.5591
X4.8819Y-2.5984
X4.8819Y-2.6378
X4.8819Y-2.6772
X4.8819Y-3.0315
X4.8819Y-3.0709
X4.8819Y-3.7008
X4.8819Y-3.7402
X4.8819Y-4.0157
X4.8819Y-4.0551
X4.8819Y-4.0945
X4.8819Y-4.1339
X4.8819Y-4.2126
X4.8819Y-4.4882
X4.8819Y-4.5276
X4.8819Y-4.6457
X4.8819Y-4.685
X4.8819Y-4.7244
X4.8819Y-4.9606
X4.8819Y-5.0
X4.8819Y-5.0394
X4.8819Y-5.1575
X4.8819Y-5.1969
X4.8819Y-5.4724
X4.8819Y-5.5118
X4.8819Y-5.5512
X4.9213Y-3.7402
X4.9213Y-4.2126
X4.9213Y-4.252
X4.9213Y-4.685
X4.9213Y-4.7244
X4.9213Y-5.1969
X4.9213Y-3.5433
X4.9606Y-3.5433
X5.0Y-3.5433
X5.0394Y-3.5433
X5.0787Y-1.8661
X5.0787Y-3.5433
X5.1433Y-2.2083
X5.1433Y-2.6748
X5.1433Y-3.1453
X5.1433Y-3.6374
X5.1433Y-4.1256
X5.1433Y-4.6138
X5.1433Y-5.102
X5.1433Y-5.5902
X5.2402Y-2.4035
X5.2402Y-2.8701
X5.2402Y-3.3406
X5.2402Y-3.8327
X5.2402Y-4.3209
X5.2402Y-4.8091
X5.2402Y-5.2972
X5.2402Y-5.7854
X5.3543Y-4.4488
X5.3937Y-2.3957
X5.3937Y-2.8622
X5.3937Y-3.3327
X5.3937Y-3.8248
X5.3937Y-4.313
X5.3937Y-4.8012
X5.3937Y-5.2894
X5.3937Y-5.7776
X5.3937Y-2.2047
X5.3937Y-2.2441
X5.3937Y-3.5827
X5.3937Y-3.622
X5.3937Y-3.6614
X5.3937Y-5.5512
X5.3937Y-5.5906
X5.3937Y-5.6299
X5.4331Y-2.2047
X5.4331Y-2.2441
X5.4331Y-2.2835
X5.4331Y-3.5433
X5.4331Y-3.5827
X5.4331Y-3.622
X5.4331Y-3.6614
X5.4331Y-3.7008
X5.4331Y-5.5118
X5.4331Y-5.5512
X5.4331Y-5.5906
X5.4724Y-2.2047
X5.4724Y-2.2441
X5.4724Y-2.2835
X5.4724Y-2.3228
X5.4724Y-3.5039
X5.4724Y-3.5433
X5.4724Y-3.5827
X5.4724Y-3.622
X5.4724Y-3.6614
X5.4724Y-3.7008
X5.4724Y-3.8189
X5.4724Y-4.2913
X5.4724Y-4.3307
X5.4724Y-4.3701
X5.4724Y-4.4094
X5.4724Y-4.4488
X5.4724Y-4.4882
X5.4724Y-4.5276
X5.4724Y-4.5669
X5.4724Y-5.4724
X5.4724Y-5.5118
X5.4724Y-5.5512
X5.5118Y-4.2126
X5.5118Y-2.2047
X5.5118Y-2.2441
X5.5118Y-2.2835
X5.5118Y-4.3701
X5.5118Y-4.4094
X5.5118Y-4.4488
X5.5118Y-4.4882
X5.5118Y-4.5276
X5.5118Y-4.5669
X5.5118Y-4.6063
X5.5118Y-5.4331
X5.5118Y-5.4724
X5.5118Y-5.5118
X5.5512Y-4.1732
X5.5512Y-4.2126
X5.5512Y-4.252
X5.5512Y-2.2047
X5.5512Y-2.2441
X5.5512Y-4.4094
X5.5512Y-4.4488
X5.5512Y-4.4882
X5.5512Y-4.5276
X5.5512Y-4.5669
X5.5512Y-4.6063
X5.5512Y-4.6457
X5.5512Y-4.685
X5.5512Y-4.7244
X5.5512Y-4.7638
X5.5512Y-4.8031
X5.5512Y-4.8425
X5.5512Y-4.8819
X5.5512Y-4.9213
X5.5512Y-4.9606
X5.5512Y-5.4331
X5.5512Y-5.4724
X5.5906Y-4.1339
X5.5906Y-4.1732
X5.5906Y-4.2126
X5.5906Y-4.252
X5.5906Y-4.2913
X5.5906Y-2.2047
X5.5906Y-4.4488
X5.5906Y-4.4882
X5.5906Y-4.5276
X5.5906Y-4.5669
X5.5906Y-4.6063
X5.5906Y-4.6457
X5.5906Y-4.685
X5.5906Y-4.7244
X5.5906Y-4.7638
X5.5906Y-4.8031
X5.5906Y-4.8425
X5.5906Y-4.8819
X5.5906Y-4.9213
X5.5906Y-4.9606
X5.5906Y-5.0
X5.5906Y-5.4331
X5.6299Y-4.0945
X5.6299Y-4.1339
X5.6299Y-4.1732
X5.6299Y-4.2126
X5.6299Y-4.252
X5.6299Y-4.2913
X5.6299Y-4.3307
X5.6299Y-4.4882
X5.6299Y-4.5276
X5.6299Y-4.5669
X5.6299Y-4.6063
X5.6299Y-4.6457
X5.6299Y-4.685
X5.6299Y-4.7244
X5.6299Y-4.7638
X5.6299Y-4.8031
X5.6299Y-4.8425
X5.6299Y-4.8819
X5.6299Y-4.9213
X5.6299Y-4.9606
X5.6299Y-5.0
X5.6299Y-5.0394
X5.6457Y-6.0039
X5.6693Y-4.0945
X5.6693Y-4.1339
X5.6693Y-4.1732
X5.6693Y-4.2126
X5.6693Y-4.252
X5.6693Y-4.2913
X5.6693Y-4.3307
X5.6693Y-4.3701
X5.7874Y-2.1654
X5.7874Y-2.2047
X5.7874Y-2.2441
X5.7874Y-2.2835
X5.7874Y-2.3228
X5.7874Y-2.3622
X5.7874Y-2.4016
X5.7874Y-2.4409
X5.7874Y-2.4803
X5.7874Y-2.5197
X5.7992Y-6.0472
X5.8268Y-2.8268
X5.8268Y-5.8228
X5.8268Y-2.1654
X5.8268Y-2.5197
X5.8661Y-2.1654
X5.8661Y-2.5197
X5.9055Y-2.1654
X5.9055Y-2.5197
X5.9094Y-2.8268
X5.9094Y-5.8228
X5.9094Y-6.0551
X5.9449Y-2.1654
X5.9449Y-2.5197
X5.9843Y-2.1654
X5.9843Y-2.2047
X5.9843Y-2.2441
X5.9843Y-2.2835
X5.9843Y-2.3228
X5.9843Y-2.3622
X5.9843Y-2.4016
X5.9843Y-2.4409
X5.9843Y-2.4803
X5.9843Y-2.5197
X6.1024Y-6.0039
X6.1024Y-4.3701
X6.1024Y-4.4094
X6.1024Y-4.4488
X6.1417Y-2.126
X6.1417Y-2.2047
X6.1417Y-4.3307
X6.1417Y-4.3701
X6.1417Y-4.4094
X6.1417Y-5.4331
X6.1811Y-2.126
X6.1811Y-2.2047
X6.1811Y-2.2441
X6.1811Y-4.2913
X6.1811Y-4.3307
X6.1811Y-4.3701
X6.1811Y-4.4882
X6.1811Y-4.5276
X6.1811Y-4.5669
X6.1811Y-4.6063
X6.1811Y-4.7638
X6.1811Y-4.8031
X6.1811Y-4.8425
X6.1811Y-4.8819
X6.1811Y-5.2756
X6.1811Y-5.4724
X6.2205Y-2.126
X6.2205Y-2.2047
X6.2205Y-2.2441
X6.2205Y-2.2835
X6.2205Y-4.252
X6.2205Y-4.2913
X6.2205Y-4.3307
X6.2205Y-4.3701
X6.2205Y-4.4488
X6.2205Y-4.4882
X6.2205Y-4.5276
X6.2205Y-4.5669
X6.2205Y-4.7244
X6.2205Y-4.7638
X6.2205Y-4.8031
X6.2205Y-4.8425
X6.2205Y-4.8819
X6.2205Y-5.0394
X6.2205Y-5.0787
X6.2205Y-5.1181
X6.2205Y-5.1575
X6.2205Y-5.1969
X6.2205Y-5.2362
X6.2205Y-5.2756
X6.2205Y-5.5118
X6.2598Y-2.126
X6.2598Y-2.2047
X6.2598Y-2.2441
X6.2598Y-2.2835
X6.2598Y-2.3228
X6.2598Y-3.4252
X6.2598Y-3.4646
X6.2598Y-3.5039
X6.2598Y-3.5433
X6.2598Y-3.5827
X6.2598Y-3.7008
X6.2598Y-4.2126
X6.2598Y-4.252
X6.2598Y-4.2913
X6.2598Y-4.3307
X6.2598Y-4.3701
X6.2598Y-4.4488
X6.2598Y-4.4882
X6.2598Y-4.5276
X6.2598Y-4.685
X6.2598Y-4.7244
X6.2598Y-4.7638
X6.2598Y-4.8031
X6.2598Y-4.8425
X6.2598Y-5.0787
X6.2598Y-5.1181
X6.2598Y-5.1575
X6.2598Y-5.1969
X6.2598Y-5.2362
X6.2598Y-5.2756
X6.2598Y-5.4331
X6.2598Y-5.5512
X6.2992Y-2.126
X6.2992Y-2.9921
X6.2992Y-3.0315
X6.2992Y-3.0709
X6.2992Y-3.1102
X6.2992Y-3.4646
X6.2992Y-3.5039
X6.2992Y-3.5433
X6.2992Y-3.5827
X6.2992Y-4.2913
X6.2992Y-4.3307
X6.2992Y-4.3701
X6.2992Y-4.4488
X6.2992Y-4.4882
X6.2992Y-4.6457
X6.2992Y-4.7638
X6.2992Y-4.8031
X6.2992Y-4.8425
X6.2992Y-5.0
X6.2992Y-5.1181
X6.2992Y-5.2362
X6.2992Y-5.2756
X6.2992Y-5.4331
X6.2992Y-5.5906
X6.3386Y-2.126
X6.3386Y-3.5039
X6.3386Y-3.5433
X6.3386Y-3.5827
X6.3386Y-4.7638
X6.3386Y-4.8031
X6.3386Y-4.8425
X6.3386Y-5.2362
X6.3386Y-5.2756
X6.3386Y-5.4331
X6.3488Y-3.7094
X6.3488Y-4.174
X6.3488Y-5.111
X6.3488Y-2.3157
X6.3488Y-2.7803
X6.3488Y-3.2449
X6.3488Y-4.6484
X6.3488Y-5.5795
X6.3622Y-6.0039
X6.3622Y-1.9646
X6.378Y-2.126
X6.378Y-3.0709
X6.378Y-3.1102
X6.378Y-3.5433
X6.378Y-3.5827
X6.378Y-4.8031
X6.378Y-4.8425
X6.378Y-5.2756
X6.378Y-5.4331
X6.5024Y-2.3079
X6.5024Y-2.7724
X6.5024Y-3.237
X6.5024Y-3.7016
X6.5024Y-4.1661
X6.5024Y-4.6406
X6.5024Y-5.1031
X6.5024Y-5.5717
X6.5394Y-2.0373
X6.5992Y-2.5031
X6.5992Y-2.9677
X6.5992Y-3.4323
X6.5992Y-3.8969
X6.5992Y-4.3614
X6.5992Y-4.8358
X6.5992Y-5.2984
X6.5992Y-5.7669
X6.622Y-2.0866
X6.811Y-3.3858
X6.811Y-2.874
X6.8504Y-4.8031
X6.8504Y-4.8425
X6.8504Y-4.8819
X6.8504Y-4.9213
X6.8504Y-5.2756
X6.8504Y-5.315
X6.8504Y-5.3543
X6.8504Y-5.3937
X6.8504Y-2.5591
X6.8504Y-2.5984
X6.8504Y-2.874
X6.8504Y-2.9134
X6.8504Y-3.0315
X6.8504Y-3.4646
X6.8504Y-3.5039
X6.8504Y-3.5433
X6.8504Y-3.8976
X6.8504Y-3.937
X6.8504Y-3.9764
X6.8504Y-4.3307
X6.8504Y-4.3701
X6.8504Y-4.4094
X6.8504Y-4.4488
X6.8898Y-4.7638
X6.8898Y-4.8031
X6.8898Y-4.8425
X6.8898Y-4.8819
X6.8898Y-4.9213
X6.8898Y-5.2362
X6.8898Y-5.2756
X6.8898Y-5.315
X6.8898Y-5.3543
X6.8898Y-5.3937
X6.8898Y-2.5984
X6.8898Y-2.874
X6.8898Y-2.9134
X6.8898Y-2.9528
X6.8898Y-3.0709
X6.8898Y-3.3465
X6.8898Y-3.5433
X6.8898Y-3.8583
X6.8898Y-3.8976
X6.8898Y-3.937
X6.8898Y-3.9764
X6.8898Y-4.0157
X6.8898Y-4.2913
X6.8898Y-4.3307
X6.8898Y-4.3701
X6.8898Y-4.4094
X6.8898Y-4.4488
X6.9291Y-4.7244
X6.9291Y-4.7638
X6.9291Y-4.8031
X6.9291Y-4.8425
X6.9291Y-4.8819
X6.9291Y-4.9213
X6.9291Y-5.1969
X6.9291Y-5.2362
X6.9291Y-5.2756
X6.9291Y-5.315
X6.9291Y-5.3543
X6.9291Y-5.3937
X6.9291Y-5.4331
X6.9291Y-5.4724
X6.9291Y-5.5118
X6.9291Y-5.5512
X6.9291Y-2.6378
X6.9291Y-2.6772
X6.9291Y-2.7165
X6.9291Y-2.7559
X6.9291Y-2.7953
X6.9291Y-2.8346
X6.9291Y-2.874
X6.9291Y-2.9134
X6.9291Y-2.9528
X6.9291Y-2.9921
X6.9291Y-3.1102
X6.9291Y-3.1496
X6.9291Y-3.2677
X6.9291Y-3.3071
X6.9291Y-3.3465
X6.9291Y-3.3858
X6.9291Y-3.5433
X6.9291Y-3.5827
X6.9291Y-3.622
X6.9291Y-3.6614
X6.9291Y-3.8189
X6.9291Y-3.8583
X6.9291Y-3.8976
X6.9291Y-3.937
X6.9291Y-3.9764
X6.9291Y-4.0157
X6.9685Y-3.1496
X6.9685Y-5.1575
X6.9685Y-5.1969
X6.9685Y-5.2362
X6.9685Y-5.2756
X6.9685Y-5.315
X6.9685Y-5.3543
X6.9685Y-5.3937
X6.9685Y-5.4331
X6.9685Y-5.4724
X6.9685Y-5.5118
X6.9685Y-3.189
X6.9685Y-3.7402
X6.9685Y-3.8583
X7.0079Y-4.685
X7.0079Y-4.7244
X7.0079Y-4.7638
X7.0079Y-4.8031
X7.0079Y-4.8425
X7.0079Y-4.8819
X7.0079Y-4.9213
X7.0079Y-4.9606
X7.0079Y-5.0
X7.0079Y-5.0394
X7.0079Y-5.0787
X7.0079Y-5.1181
X7.0079Y-5.1575
X7.0079Y-5.1969
X7.0079Y-5.2362
X7.0079Y-5.2756
X7.0079Y-5.315
X7.0079Y-5.3543
X7.0079Y-5.3937
X7.0079Y-5.4331
X7.0079Y-5.4724
T3
X5.5704Y-1.6285
X6.1704Y-1.6285
T4
X4.6205Y-2.7949
X4.6205Y-2.8949
X4.6205Y-2.9949
X4.6205Y-3.0949
X4.6205Y-3.1949
X4.6205Y-3.2949
X4.6205Y-3.3949
X4.6205Y-3.4949
X4.6205Y-3.5949
X4.6205Y-3.6949
X4.6205Y-3.7949
X4.6205Y-3.8949
X4.6205Y-3.9949
X4.6205Y-4.0949
X4.6205Y-4.1949
X4.6205Y-4.2949
X4.6205Y-4.3949
X4.6205Y-4.4949
X4.6205Y-4.5949
X4.7205Y-2.7949
X4.7205Y-2.8949
X4.7205Y-2.9949
X4.7205Y-3.0949
X4.7205Y-3.1949
X4.7205Y-3.2949
X4.7205Y-3.3949
X4.7205Y-3.4949
X4.7205Y-3.5949
X4.7205Y-3.6949
X4.7205Y-3.7949
X4.7205Y-3.8949
X4.7205Y-3.9949
X4.7205Y-4.0949
X4.7205Y-4.1949
X4.7205Y-4.2949
X4.7205Y-4.3949
X4.7205Y-4.4949
X4.7205Y-4.5949
X7.0205Y-2.7949
X7.0205Y-2.8949
X7.0205Y-2.9949
X7.0205Y-3.0949
X7.0205Y-3.1949
X7.0205Y-3.2949
X7.0205Y-3.3949
X7.0205Y-3.4949
X7.0205Y-3.5949
X7.0205Y-3.6949
X7.0205Y-3.7949
X7.0205Y-3.8949
X7.0205Y-3.9949
X7.0205Y-4.0949
X7.0205Y-4.1949
X7.0205Y-4.2949
X7.0205Y-4.3949
X7.0205Y-4.4949
X7.0205Y-4.5949
X7.1205Y-2.7949
X7.1205Y-2.8949
X7.1205Y-2.9949
X7.1205Y-3.0949
X7.1205Y-3.1949
X7.1205Y-3.2949
X7.1205Y-3.3949
X7.1205Y-3.4949
X7.1205Y-3.5949
X7.1205Y-3.6949
X7.1205Y-3.7949
X7.1205Y-3.8949
X7.1205Y-3.9949
X7.1205Y-4.0949
X7.1205Y-4.1949
X7.1205Y-4.2949
X7.1205Y-4.3949
X7.1205Y-4.4949
X7.1205Y-4.5949
T2
G00X5.702Y-3.3465
M15
G01X5.7295Y-3.3465
M16
G05
G00X5.702Y-3.4465
M15
G01X5.7295Y-3.4465
M16
G05
G00X5.702Y-3.5465
M15
G01X5.7295Y-3.5465
M16
G05
G00X5.702Y-3.6465
M15
G01X5.7295Y-3.6465
M16
G05
G00X5.702Y-3.7465
M15
G01X5.7295Y-3.7465
M16
G05
G00X5.702Y-3.8465
M15
G01X5.7295Y-3.8465
M16
G05
G00X5.702Y-3.9465
M15
G01X5.7295Y-3.9465
M16
G05
G00X5.702Y-4.0465
M15
G01X5.7295Y-4.0465
M16
G05
G00X6.002Y-3.3465
M15
G01X6.0295Y-3.3465
M16
G05
G00X6.002Y-3.4465
M15
G01X6.0295Y-3.4465
M16
G05
G00X6.002Y-3.5465
M15
G01X6.0295Y-3.5465
M16
G05
G00X6.002Y-3.6465
M15
G01X6.0295Y-3.6465
M16
G05
G00X6.002Y-3.7465
M15
G01X6.0295Y-3.7465
M16
G05
G00X6.002Y-3.8465
M15
G01X6.0295Y-3.8465
M16
G05
G00X6.002Y-3.9465
M15
G01X6.0295Y-3.9465
M16
G05
G00X6.002Y-4.0465
M15
G01X6.0295Y-4.0465
M16
G05
M30
