%TF.GenerationSoftware,KiCad,Pcbnew,8.0.6*%
%TF.CreationDate,2024-11-07T23:38:59+00:00*%
%TF.ProjectId,pin_interface_circuit,70696e5f-696e-4746-9572-666163655f63,rev?*%
%TF.SameCoordinates,Original*%
%TF.FileFunction,Legend,Top*%
%TF.FilePolarity,Positive*%
%FSLAX46Y46*%
G04 Gerber Fmt 4.6, Leading zero omitted, Abs format (unit mm)*
G04 Created by KiCad (PCBNEW 8.0.6) date 2024-11-07 23:38:59*
%MOMM*%
%LPD*%
G01*
G04 APERTURE LIST*
%ADD10C,0.150000*%
%ADD11C,0.120000*%
G04 APERTURE END LIST*
D10*
X147228571Y-94500057D02*
X147133333Y-94452438D01*
X147133333Y-94452438D02*
X147038095Y-94357200D01*
X147038095Y-94357200D02*
X146895238Y-94214342D01*
X146895238Y-94214342D02*
X146800000Y-94166723D01*
X146800000Y-94166723D02*
X146704762Y-94166723D01*
X146752381Y-94404819D02*
X146657143Y-94357200D01*
X146657143Y-94357200D02*
X146561905Y-94261961D01*
X146561905Y-94261961D02*
X146514286Y-94071485D01*
X146514286Y-94071485D02*
X146514286Y-93738152D01*
X146514286Y-93738152D02*
X146561905Y-93547676D01*
X146561905Y-93547676D02*
X146657143Y-93452438D01*
X146657143Y-93452438D02*
X146752381Y-93404819D01*
X146752381Y-93404819D02*
X146942857Y-93404819D01*
X146942857Y-93404819D02*
X147038095Y-93452438D01*
X147038095Y-93452438D02*
X147133333Y-93547676D01*
X147133333Y-93547676D02*
X147180952Y-93738152D01*
X147180952Y-93738152D02*
X147180952Y-94071485D01*
X147180952Y-94071485D02*
X147133333Y-94261961D01*
X147133333Y-94261961D02*
X147038095Y-94357200D01*
X147038095Y-94357200D02*
X146942857Y-94404819D01*
X146942857Y-94404819D02*
X146752381Y-94404819D01*
X148133333Y-94404819D02*
X147561905Y-94404819D01*
X147847619Y-94404819D02*
X147847619Y-93404819D01*
X147847619Y-93404819D02*
X147752381Y-93547676D01*
X147752381Y-93547676D02*
X147657143Y-93642914D01*
X147657143Y-93642914D02*
X147561905Y-93690533D01*
X148514286Y-93500057D02*
X148561905Y-93452438D01*
X148561905Y-93452438D02*
X148657143Y-93404819D01*
X148657143Y-93404819D02*
X148895238Y-93404819D01*
X148895238Y-93404819D02*
X148990476Y-93452438D01*
X148990476Y-93452438D02*
X149038095Y-93500057D01*
X149038095Y-93500057D02*
X149085714Y-93595295D01*
X149085714Y-93595295D02*
X149085714Y-93690533D01*
X149085714Y-93690533D02*
X149038095Y-93833390D01*
X149038095Y-93833390D02*
X148466667Y-94404819D01*
X148466667Y-94404819D02*
X149085714Y-94404819D01*
X119007142Y-92604819D02*
X118673809Y-92128628D01*
X118435714Y-92604819D02*
X118435714Y-91604819D01*
X118435714Y-91604819D02*
X118816666Y-91604819D01*
X118816666Y-91604819D02*
X118911904Y-91652438D01*
X118911904Y-91652438D02*
X118959523Y-91700057D01*
X118959523Y-91700057D02*
X119007142Y-91795295D01*
X119007142Y-91795295D02*
X119007142Y-91938152D01*
X119007142Y-91938152D02*
X118959523Y-92033390D01*
X118959523Y-92033390D02*
X118911904Y-92081009D01*
X118911904Y-92081009D02*
X118816666Y-92128628D01*
X118816666Y-92128628D02*
X118435714Y-92128628D01*
X119959523Y-92604819D02*
X119388095Y-92604819D01*
X119673809Y-92604819D02*
X119673809Y-91604819D01*
X119673809Y-91604819D02*
X119578571Y-91747676D01*
X119578571Y-91747676D02*
X119483333Y-91842914D01*
X119483333Y-91842914D02*
X119388095Y-91890533D01*
X120578571Y-91604819D02*
X120673809Y-91604819D01*
X120673809Y-91604819D02*
X120769047Y-91652438D01*
X120769047Y-91652438D02*
X120816666Y-91700057D01*
X120816666Y-91700057D02*
X120864285Y-91795295D01*
X120864285Y-91795295D02*
X120911904Y-91985771D01*
X120911904Y-91985771D02*
X120911904Y-92223866D01*
X120911904Y-92223866D02*
X120864285Y-92414342D01*
X120864285Y-92414342D02*
X120816666Y-92509580D01*
X120816666Y-92509580D02*
X120769047Y-92557200D01*
X120769047Y-92557200D02*
X120673809Y-92604819D01*
X120673809Y-92604819D02*
X120578571Y-92604819D01*
X120578571Y-92604819D02*
X120483333Y-92557200D01*
X120483333Y-92557200D02*
X120435714Y-92509580D01*
X120435714Y-92509580D02*
X120388095Y-92414342D01*
X120388095Y-92414342D02*
X120340476Y-92223866D01*
X120340476Y-92223866D02*
X120340476Y-91985771D01*
X120340476Y-91985771D02*
X120388095Y-91795295D01*
X120388095Y-91795295D02*
X120435714Y-91700057D01*
X120435714Y-91700057D02*
X120483333Y-91652438D01*
X120483333Y-91652438D02*
X120578571Y-91604819D01*
X143564819Y-96833333D02*
X144279104Y-96833333D01*
X144279104Y-96833333D02*
X144421961Y-96880952D01*
X144421961Y-96880952D02*
X144517200Y-96976190D01*
X144517200Y-96976190D02*
X144564819Y-97119047D01*
X144564819Y-97119047D02*
X144564819Y-97214285D01*
X144564819Y-95833333D02*
X144564819Y-96404761D01*
X144564819Y-96119047D02*
X143564819Y-96119047D01*
X143564819Y-96119047D02*
X143707676Y-96214285D01*
X143707676Y-96214285D02*
X143802914Y-96309523D01*
X143802914Y-96309523D02*
X143850533Y-96404761D01*
X149978571Y-82000057D02*
X149883333Y-81952438D01*
X149883333Y-81952438D02*
X149788095Y-81857200D01*
X149788095Y-81857200D02*
X149645238Y-81714342D01*
X149645238Y-81714342D02*
X149550000Y-81666723D01*
X149550000Y-81666723D02*
X149454762Y-81666723D01*
X149502381Y-81904819D02*
X149407143Y-81857200D01*
X149407143Y-81857200D02*
X149311905Y-81761961D01*
X149311905Y-81761961D02*
X149264286Y-81571485D01*
X149264286Y-81571485D02*
X149264286Y-81238152D01*
X149264286Y-81238152D02*
X149311905Y-81047676D01*
X149311905Y-81047676D02*
X149407143Y-80952438D01*
X149407143Y-80952438D02*
X149502381Y-80904819D01*
X149502381Y-80904819D02*
X149692857Y-80904819D01*
X149692857Y-80904819D02*
X149788095Y-80952438D01*
X149788095Y-80952438D02*
X149883333Y-81047676D01*
X149883333Y-81047676D02*
X149930952Y-81238152D01*
X149930952Y-81238152D02*
X149930952Y-81571485D01*
X149930952Y-81571485D02*
X149883333Y-81761961D01*
X149883333Y-81761961D02*
X149788095Y-81857200D01*
X149788095Y-81857200D02*
X149692857Y-81904819D01*
X149692857Y-81904819D02*
X149502381Y-81904819D01*
X150883333Y-81904819D02*
X150311905Y-81904819D01*
X150597619Y-81904819D02*
X150597619Y-80904819D01*
X150597619Y-80904819D02*
X150502381Y-81047676D01*
X150502381Y-81047676D02*
X150407143Y-81142914D01*
X150407143Y-81142914D02*
X150311905Y-81190533D01*
X151835714Y-81904819D02*
X151264286Y-81904819D01*
X151550000Y-81904819D02*
X151550000Y-80904819D01*
X151550000Y-80904819D02*
X151454762Y-81047676D01*
X151454762Y-81047676D02*
X151359524Y-81142914D01*
X151359524Y-81142914D02*
X151264286Y-81190533D01*
X121404761Y-77550057D02*
X121309523Y-77502438D01*
X121309523Y-77502438D02*
X121214285Y-77407200D01*
X121214285Y-77407200D02*
X121071428Y-77264342D01*
X121071428Y-77264342D02*
X120976190Y-77216723D01*
X120976190Y-77216723D02*
X120880952Y-77216723D01*
X120928571Y-77454819D02*
X120833333Y-77407200D01*
X120833333Y-77407200D02*
X120738095Y-77311961D01*
X120738095Y-77311961D02*
X120690476Y-77121485D01*
X120690476Y-77121485D02*
X120690476Y-76788152D01*
X120690476Y-76788152D02*
X120738095Y-76597676D01*
X120738095Y-76597676D02*
X120833333Y-76502438D01*
X120833333Y-76502438D02*
X120928571Y-76454819D01*
X120928571Y-76454819D02*
X121119047Y-76454819D01*
X121119047Y-76454819D02*
X121214285Y-76502438D01*
X121214285Y-76502438D02*
X121309523Y-76597676D01*
X121309523Y-76597676D02*
X121357142Y-76788152D01*
X121357142Y-76788152D02*
X121357142Y-77121485D01*
X121357142Y-77121485D02*
X121309523Y-77311961D01*
X121309523Y-77311961D02*
X121214285Y-77407200D01*
X121214285Y-77407200D02*
X121119047Y-77454819D01*
X121119047Y-77454819D02*
X120928571Y-77454819D01*
X122309523Y-77454819D02*
X121738095Y-77454819D01*
X122023809Y-77454819D02*
X122023809Y-76454819D01*
X122023809Y-76454819D02*
X121928571Y-76597676D01*
X121928571Y-76597676D02*
X121833333Y-76692914D01*
X121833333Y-76692914D02*
X121738095Y-76740533D01*
X121407142Y-81334819D02*
X121073809Y-80858628D01*
X120835714Y-81334819D02*
X120835714Y-80334819D01*
X120835714Y-80334819D02*
X121216666Y-80334819D01*
X121216666Y-80334819D02*
X121311904Y-80382438D01*
X121311904Y-80382438D02*
X121359523Y-80430057D01*
X121359523Y-80430057D02*
X121407142Y-80525295D01*
X121407142Y-80525295D02*
X121407142Y-80668152D01*
X121407142Y-80668152D02*
X121359523Y-80763390D01*
X121359523Y-80763390D02*
X121311904Y-80811009D01*
X121311904Y-80811009D02*
X121216666Y-80858628D01*
X121216666Y-80858628D02*
X120835714Y-80858628D01*
X122359523Y-81334819D02*
X121788095Y-81334819D01*
X122073809Y-81334819D02*
X122073809Y-80334819D01*
X122073809Y-80334819D02*
X121978571Y-80477676D01*
X121978571Y-80477676D02*
X121883333Y-80572914D01*
X121883333Y-80572914D02*
X121788095Y-80620533D01*
X123311904Y-81334819D02*
X122740476Y-81334819D01*
X123026190Y-81334819D02*
X123026190Y-80334819D01*
X123026190Y-80334819D02*
X122930952Y-80477676D01*
X122930952Y-80477676D02*
X122835714Y-80572914D01*
X122835714Y-80572914D02*
X122740476Y-80620533D01*
X122504819Y-78816666D02*
X122028628Y-79149999D01*
X122504819Y-79388094D02*
X121504819Y-79388094D01*
X121504819Y-79388094D02*
X121504819Y-79007142D01*
X121504819Y-79007142D02*
X121552438Y-78911904D01*
X121552438Y-78911904D02*
X121600057Y-78864285D01*
X121600057Y-78864285D02*
X121695295Y-78816666D01*
X121695295Y-78816666D02*
X121838152Y-78816666D01*
X121838152Y-78816666D02*
X121933390Y-78864285D01*
X121933390Y-78864285D02*
X121981009Y-78911904D01*
X121981009Y-78911904D02*
X122028628Y-79007142D01*
X122028628Y-79007142D02*
X122028628Y-79388094D01*
X121504819Y-78483332D02*
X121504819Y-77816666D01*
X121504819Y-77816666D02*
X122504819Y-78245237D01*
X137407142Y-86684819D02*
X137073809Y-86208628D01*
X136835714Y-86684819D02*
X136835714Y-85684819D01*
X136835714Y-85684819D02*
X137216666Y-85684819D01*
X137216666Y-85684819D02*
X137311904Y-85732438D01*
X137311904Y-85732438D02*
X137359523Y-85780057D01*
X137359523Y-85780057D02*
X137407142Y-85875295D01*
X137407142Y-85875295D02*
X137407142Y-86018152D01*
X137407142Y-86018152D02*
X137359523Y-86113390D01*
X137359523Y-86113390D02*
X137311904Y-86161009D01*
X137311904Y-86161009D02*
X137216666Y-86208628D01*
X137216666Y-86208628D02*
X136835714Y-86208628D01*
X138359523Y-86684819D02*
X137788095Y-86684819D01*
X138073809Y-86684819D02*
X138073809Y-85684819D01*
X138073809Y-85684819D02*
X137978571Y-85827676D01*
X137978571Y-85827676D02*
X137883333Y-85922914D01*
X137883333Y-85922914D02*
X137788095Y-85970533D01*
X139216666Y-86018152D02*
X139216666Y-86684819D01*
X138978571Y-85637200D02*
X138740476Y-86351485D01*
X138740476Y-86351485D02*
X139359523Y-86351485D01*
X116954761Y-81000057D02*
X116859523Y-80952438D01*
X116859523Y-80952438D02*
X116764285Y-80857200D01*
X116764285Y-80857200D02*
X116621428Y-80714342D01*
X116621428Y-80714342D02*
X116526190Y-80666723D01*
X116526190Y-80666723D02*
X116430952Y-80666723D01*
X116478571Y-80904819D02*
X116383333Y-80857200D01*
X116383333Y-80857200D02*
X116288095Y-80761961D01*
X116288095Y-80761961D02*
X116240476Y-80571485D01*
X116240476Y-80571485D02*
X116240476Y-80238152D01*
X116240476Y-80238152D02*
X116288095Y-80047676D01*
X116288095Y-80047676D02*
X116383333Y-79952438D01*
X116383333Y-79952438D02*
X116478571Y-79904819D01*
X116478571Y-79904819D02*
X116669047Y-79904819D01*
X116669047Y-79904819D02*
X116764285Y-79952438D01*
X116764285Y-79952438D02*
X116859523Y-80047676D01*
X116859523Y-80047676D02*
X116907142Y-80238152D01*
X116907142Y-80238152D02*
X116907142Y-80571485D01*
X116907142Y-80571485D02*
X116859523Y-80761961D01*
X116859523Y-80761961D02*
X116764285Y-80857200D01*
X116764285Y-80857200D02*
X116669047Y-80904819D01*
X116669047Y-80904819D02*
X116478571Y-80904819D01*
X117288095Y-80000057D02*
X117335714Y-79952438D01*
X117335714Y-79952438D02*
X117430952Y-79904819D01*
X117430952Y-79904819D02*
X117669047Y-79904819D01*
X117669047Y-79904819D02*
X117764285Y-79952438D01*
X117764285Y-79952438D02*
X117811904Y-80000057D01*
X117811904Y-80000057D02*
X117859523Y-80095295D01*
X117859523Y-80095295D02*
X117859523Y-80190533D01*
X117859523Y-80190533D02*
X117811904Y-80333390D01*
X117811904Y-80333390D02*
X117240476Y-80904819D01*
X117240476Y-80904819D02*
X117859523Y-80904819D01*
X109004819Y-89116666D02*
X108528628Y-89449999D01*
X109004819Y-89688094D02*
X108004819Y-89688094D01*
X108004819Y-89688094D02*
X108004819Y-89307142D01*
X108004819Y-89307142D02*
X108052438Y-89211904D01*
X108052438Y-89211904D02*
X108100057Y-89164285D01*
X108100057Y-89164285D02*
X108195295Y-89116666D01*
X108195295Y-89116666D02*
X108338152Y-89116666D01*
X108338152Y-89116666D02*
X108433390Y-89164285D01*
X108433390Y-89164285D02*
X108481009Y-89211904D01*
X108481009Y-89211904D02*
X108528628Y-89307142D01*
X108528628Y-89307142D02*
X108528628Y-89688094D01*
X108004819Y-88259523D02*
X108004819Y-88449999D01*
X108004819Y-88449999D02*
X108052438Y-88545237D01*
X108052438Y-88545237D02*
X108100057Y-88592856D01*
X108100057Y-88592856D02*
X108242914Y-88688094D01*
X108242914Y-88688094D02*
X108433390Y-88735713D01*
X108433390Y-88735713D02*
X108814342Y-88735713D01*
X108814342Y-88735713D02*
X108909580Y-88688094D01*
X108909580Y-88688094D02*
X108957200Y-88640475D01*
X108957200Y-88640475D02*
X109004819Y-88545237D01*
X109004819Y-88545237D02*
X109004819Y-88354761D01*
X109004819Y-88354761D02*
X108957200Y-88259523D01*
X108957200Y-88259523D02*
X108909580Y-88211904D01*
X108909580Y-88211904D02*
X108814342Y-88164285D01*
X108814342Y-88164285D02*
X108576247Y-88164285D01*
X108576247Y-88164285D02*
X108481009Y-88211904D01*
X108481009Y-88211904D02*
X108433390Y-88259523D01*
X108433390Y-88259523D02*
X108385771Y-88354761D01*
X108385771Y-88354761D02*
X108385771Y-88545237D01*
X108385771Y-88545237D02*
X108433390Y-88640475D01*
X108433390Y-88640475D02*
X108481009Y-88688094D01*
X108481009Y-88688094D02*
X108576247Y-88735713D01*
X116044819Y-73993333D02*
X116759104Y-73993333D01*
X116759104Y-73993333D02*
X116901961Y-74040952D01*
X116901961Y-74040952D02*
X116997200Y-74136190D01*
X116997200Y-74136190D02*
X117044819Y-74279047D01*
X117044819Y-74279047D02*
X117044819Y-74374285D01*
X116140057Y-73564761D02*
X116092438Y-73517142D01*
X116092438Y-73517142D02*
X116044819Y-73421904D01*
X116044819Y-73421904D02*
X116044819Y-73183809D01*
X116044819Y-73183809D02*
X116092438Y-73088571D01*
X116092438Y-73088571D02*
X116140057Y-73040952D01*
X116140057Y-73040952D02*
X116235295Y-72993333D01*
X116235295Y-72993333D02*
X116330533Y-72993333D01*
X116330533Y-72993333D02*
X116473390Y-73040952D01*
X116473390Y-73040952D02*
X117044819Y-73612380D01*
X117044819Y-73612380D02*
X117044819Y-72993333D01*
X136704761Y-94100057D02*
X136609523Y-94052438D01*
X136609523Y-94052438D02*
X136514285Y-93957200D01*
X136514285Y-93957200D02*
X136371428Y-93814342D01*
X136371428Y-93814342D02*
X136276190Y-93766723D01*
X136276190Y-93766723D02*
X136180952Y-93766723D01*
X136228571Y-94004819D02*
X136133333Y-93957200D01*
X136133333Y-93957200D02*
X136038095Y-93861961D01*
X136038095Y-93861961D02*
X135990476Y-93671485D01*
X135990476Y-93671485D02*
X135990476Y-93338152D01*
X135990476Y-93338152D02*
X136038095Y-93147676D01*
X136038095Y-93147676D02*
X136133333Y-93052438D01*
X136133333Y-93052438D02*
X136228571Y-93004819D01*
X136228571Y-93004819D02*
X136419047Y-93004819D01*
X136419047Y-93004819D02*
X136514285Y-93052438D01*
X136514285Y-93052438D02*
X136609523Y-93147676D01*
X136609523Y-93147676D02*
X136657142Y-93338152D01*
X136657142Y-93338152D02*
X136657142Y-93671485D01*
X136657142Y-93671485D02*
X136609523Y-93861961D01*
X136609523Y-93861961D02*
X136514285Y-93957200D01*
X136514285Y-93957200D02*
X136419047Y-94004819D01*
X136419047Y-94004819D02*
X136228571Y-94004819D01*
X137133333Y-94004819D02*
X137323809Y-94004819D01*
X137323809Y-94004819D02*
X137419047Y-93957200D01*
X137419047Y-93957200D02*
X137466666Y-93909580D01*
X137466666Y-93909580D02*
X137561904Y-93766723D01*
X137561904Y-93766723D02*
X137609523Y-93576247D01*
X137609523Y-93576247D02*
X137609523Y-93195295D01*
X137609523Y-93195295D02*
X137561904Y-93100057D01*
X137561904Y-93100057D02*
X137514285Y-93052438D01*
X137514285Y-93052438D02*
X137419047Y-93004819D01*
X137419047Y-93004819D02*
X137228571Y-93004819D01*
X137228571Y-93004819D02*
X137133333Y-93052438D01*
X137133333Y-93052438D02*
X137085714Y-93100057D01*
X137085714Y-93100057D02*
X137038095Y-93195295D01*
X137038095Y-93195295D02*
X137038095Y-93433390D01*
X137038095Y-93433390D02*
X137085714Y-93528628D01*
X137085714Y-93528628D02*
X137133333Y-93576247D01*
X137133333Y-93576247D02*
X137228571Y-93623866D01*
X137228571Y-93623866D02*
X137419047Y-93623866D01*
X137419047Y-93623866D02*
X137514285Y-93576247D01*
X137514285Y-93576247D02*
X137561904Y-93528628D01*
X137561904Y-93528628D02*
X137609523Y-93433390D01*
X131004819Y-90192857D02*
X130528628Y-90526190D01*
X131004819Y-90764285D02*
X130004819Y-90764285D01*
X130004819Y-90764285D02*
X130004819Y-90383333D01*
X130004819Y-90383333D02*
X130052438Y-90288095D01*
X130052438Y-90288095D02*
X130100057Y-90240476D01*
X130100057Y-90240476D02*
X130195295Y-90192857D01*
X130195295Y-90192857D02*
X130338152Y-90192857D01*
X130338152Y-90192857D02*
X130433390Y-90240476D01*
X130433390Y-90240476D02*
X130481009Y-90288095D01*
X130481009Y-90288095D02*
X130528628Y-90383333D01*
X130528628Y-90383333D02*
X130528628Y-90764285D01*
X131004819Y-89240476D02*
X131004819Y-89811904D01*
X131004819Y-89526190D02*
X130004819Y-89526190D01*
X130004819Y-89526190D02*
X130147676Y-89621428D01*
X130147676Y-89621428D02*
X130242914Y-89716666D01*
X130242914Y-89716666D02*
X130290533Y-89811904D01*
X130433390Y-88669047D02*
X130385771Y-88764285D01*
X130385771Y-88764285D02*
X130338152Y-88811904D01*
X130338152Y-88811904D02*
X130242914Y-88859523D01*
X130242914Y-88859523D02*
X130195295Y-88859523D01*
X130195295Y-88859523D02*
X130100057Y-88811904D01*
X130100057Y-88811904D02*
X130052438Y-88764285D01*
X130052438Y-88764285D02*
X130004819Y-88669047D01*
X130004819Y-88669047D02*
X130004819Y-88478571D01*
X130004819Y-88478571D02*
X130052438Y-88383333D01*
X130052438Y-88383333D02*
X130100057Y-88335714D01*
X130100057Y-88335714D02*
X130195295Y-88288095D01*
X130195295Y-88288095D02*
X130242914Y-88288095D01*
X130242914Y-88288095D02*
X130338152Y-88335714D01*
X130338152Y-88335714D02*
X130385771Y-88383333D01*
X130385771Y-88383333D02*
X130433390Y-88478571D01*
X130433390Y-88478571D02*
X130433390Y-88669047D01*
X130433390Y-88669047D02*
X130481009Y-88764285D01*
X130481009Y-88764285D02*
X130528628Y-88811904D01*
X130528628Y-88811904D02*
X130623866Y-88859523D01*
X130623866Y-88859523D02*
X130814342Y-88859523D01*
X130814342Y-88859523D02*
X130909580Y-88811904D01*
X130909580Y-88811904D02*
X130957200Y-88764285D01*
X130957200Y-88764285D02*
X131004819Y-88669047D01*
X131004819Y-88669047D02*
X131004819Y-88478571D01*
X131004819Y-88478571D02*
X130957200Y-88383333D01*
X130957200Y-88383333D02*
X130909580Y-88335714D01*
X130909580Y-88335714D02*
X130814342Y-88288095D01*
X130814342Y-88288095D02*
X130623866Y-88288095D01*
X130623866Y-88288095D02*
X130528628Y-88335714D01*
X130528628Y-88335714D02*
X130481009Y-88383333D01*
X130481009Y-88383333D02*
X130433390Y-88478571D01*
X107883333Y-85904819D02*
X107550000Y-85428628D01*
X107311905Y-85904819D02*
X107311905Y-84904819D01*
X107311905Y-84904819D02*
X107692857Y-84904819D01*
X107692857Y-84904819D02*
X107788095Y-84952438D01*
X107788095Y-84952438D02*
X107835714Y-85000057D01*
X107835714Y-85000057D02*
X107883333Y-85095295D01*
X107883333Y-85095295D02*
X107883333Y-85238152D01*
X107883333Y-85238152D02*
X107835714Y-85333390D01*
X107835714Y-85333390D02*
X107788095Y-85381009D01*
X107788095Y-85381009D02*
X107692857Y-85428628D01*
X107692857Y-85428628D02*
X107311905Y-85428628D01*
X108216667Y-84904819D02*
X108835714Y-84904819D01*
X108835714Y-84904819D02*
X108502381Y-85285771D01*
X108502381Y-85285771D02*
X108645238Y-85285771D01*
X108645238Y-85285771D02*
X108740476Y-85333390D01*
X108740476Y-85333390D02*
X108788095Y-85381009D01*
X108788095Y-85381009D02*
X108835714Y-85476247D01*
X108835714Y-85476247D02*
X108835714Y-85714342D01*
X108835714Y-85714342D02*
X108788095Y-85809580D01*
X108788095Y-85809580D02*
X108740476Y-85857200D01*
X108740476Y-85857200D02*
X108645238Y-85904819D01*
X108645238Y-85904819D02*
X108359524Y-85904819D01*
X108359524Y-85904819D02*
X108264286Y-85857200D01*
X108264286Y-85857200D02*
X108216667Y-85809580D01*
X149978571Y-76750057D02*
X149883333Y-76702438D01*
X149883333Y-76702438D02*
X149788095Y-76607200D01*
X149788095Y-76607200D02*
X149645238Y-76464342D01*
X149645238Y-76464342D02*
X149550000Y-76416723D01*
X149550000Y-76416723D02*
X149454762Y-76416723D01*
X149502381Y-76654819D02*
X149407143Y-76607200D01*
X149407143Y-76607200D02*
X149311905Y-76511961D01*
X149311905Y-76511961D02*
X149264286Y-76321485D01*
X149264286Y-76321485D02*
X149264286Y-75988152D01*
X149264286Y-75988152D02*
X149311905Y-75797676D01*
X149311905Y-75797676D02*
X149407143Y-75702438D01*
X149407143Y-75702438D02*
X149502381Y-75654819D01*
X149502381Y-75654819D02*
X149692857Y-75654819D01*
X149692857Y-75654819D02*
X149788095Y-75702438D01*
X149788095Y-75702438D02*
X149883333Y-75797676D01*
X149883333Y-75797676D02*
X149930952Y-75988152D01*
X149930952Y-75988152D02*
X149930952Y-76321485D01*
X149930952Y-76321485D02*
X149883333Y-76511961D01*
X149883333Y-76511961D02*
X149788095Y-76607200D01*
X149788095Y-76607200D02*
X149692857Y-76654819D01*
X149692857Y-76654819D02*
X149502381Y-76654819D01*
X150883333Y-76654819D02*
X150311905Y-76654819D01*
X150597619Y-76654819D02*
X150597619Y-75654819D01*
X150597619Y-75654819D02*
X150502381Y-75797676D01*
X150502381Y-75797676D02*
X150407143Y-75892914D01*
X150407143Y-75892914D02*
X150311905Y-75940533D01*
X151502381Y-75654819D02*
X151597619Y-75654819D01*
X151597619Y-75654819D02*
X151692857Y-75702438D01*
X151692857Y-75702438D02*
X151740476Y-75750057D01*
X151740476Y-75750057D02*
X151788095Y-75845295D01*
X151788095Y-75845295D02*
X151835714Y-76035771D01*
X151835714Y-76035771D02*
X151835714Y-76273866D01*
X151835714Y-76273866D02*
X151788095Y-76464342D01*
X151788095Y-76464342D02*
X151740476Y-76559580D01*
X151740476Y-76559580D02*
X151692857Y-76607200D01*
X151692857Y-76607200D02*
X151597619Y-76654819D01*
X151597619Y-76654819D02*
X151502381Y-76654819D01*
X151502381Y-76654819D02*
X151407143Y-76607200D01*
X151407143Y-76607200D02*
X151359524Y-76559580D01*
X151359524Y-76559580D02*
X151311905Y-76464342D01*
X151311905Y-76464342D02*
X151264286Y-76273866D01*
X151264286Y-76273866D02*
X151264286Y-76035771D01*
X151264286Y-76035771D02*
X151311905Y-75845295D01*
X151311905Y-75845295D02*
X151359524Y-75750057D01*
X151359524Y-75750057D02*
X151407143Y-75702438D01*
X151407143Y-75702438D02*
X151502381Y-75654819D01*
X142907142Y-82084819D02*
X142573809Y-81608628D01*
X142335714Y-82084819D02*
X142335714Y-81084819D01*
X142335714Y-81084819D02*
X142716666Y-81084819D01*
X142716666Y-81084819D02*
X142811904Y-81132438D01*
X142811904Y-81132438D02*
X142859523Y-81180057D01*
X142859523Y-81180057D02*
X142907142Y-81275295D01*
X142907142Y-81275295D02*
X142907142Y-81418152D01*
X142907142Y-81418152D02*
X142859523Y-81513390D01*
X142859523Y-81513390D02*
X142811904Y-81561009D01*
X142811904Y-81561009D02*
X142716666Y-81608628D01*
X142716666Y-81608628D02*
X142335714Y-81608628D01*
X143288095Y-81180057D02*
X143335714Y-81132438D01*
X143335714Y-81132438D02*
X143430952Y-81084819D01*
X143430952Y-81084819D02*
X143669047Y-81084819D01*
X143669047Y-81084819D02*
X143764285Y-81132438D01*
X143764285Y-81132438D02*
X143811904Y-81180057D01*
X143811904Y-81180057D02*
X143859523Y-81275295D01*
X143859523Y-81275295D02*
X143859523Y-81370533D01*
X143859523Y-81370533D02*
X143811904Y-81513390D01*
X143811904Y-81513390D02*
X143240476Y-82084819D01*
X143240476Y-82084819D02*
X143859523Y-82084819D01*
X144192857Y-81084819D02*
X144811904Y-81084819D01*
X144811904Y-81084819D02*
X144478571Y-81465771D01*
X144478571Y-81465771D02*
X144621428Y-81465771D01*
X144621428Y-81465771D02*
X144716666Y-81513390D01*
X144716666Y-81513390D02*
X144764285Y-81561009D01*
X144764285Y-81561009D02*
X144811904Y-81656247D01*
X144811904Y-81656247D02*
X144811904Y-81894342D01*
X144811904Y-81894342D02*
X144764285Y-81989580D01*
X144764285Y-81989580D02*
X144716666Y-82037200D01*
X144716666Y-82037200D02*
X144621428Y-82084819D01*
X144621428Y-82084819D02*
X144335714Y-82084819D01*
X144335714Y-82084819D02*
X144240476Y-82037200D01*
X144240476Y-82037200D02*
X144192857Y-81989580D01*
X129857142Y-92804819D02*
X129523809Y-92328628D01*
X129285714Y-92804819D02*
X129285714Y-91804819D01*
X129285714Y-91804819D02*
X129666666Y-91804819D01*
X129666666Y-91804819D02*
X129761904Y-91852438D01*
X129761904Y-91852438D02*
X129809523Y-91900057D01*
X129809523Y-91900057D02*
X129857142Y-91995295D01*
X129857142Y-91995295D02*
X129857142Y-92138152D01*
X129857142Y-92138152D02*
X129809523Y-92233390D01*
X129809523Y-92233390D02*
X129761904Y-92281009D01*
X129761904Y-92281009D02*
X129666666Y-92328628D01*
X129666666Y-92328628D02*
X129285714Y-92328628D01*
X130809523Y-92804819D02*
X130238095Y-92804819D01*
X130523809Y-92804819D02*
X130523809Y-91804819D01*
X130523809Y-91804819D02*
X130428571Y-91947676D01*
X130428571Y-91947676D02*
X130333333Y-92042914D01*
X130333333Y-92042914D02*
X130238095Y-92090533D01*
X131666666Y-91804819D02*
X131476190Y-91804819D01*
X131476190Y-91804819D02*
X131380952Y-91852438D01*
X131380952Y-91852438D02*
X131333333Y-91900057D01*
X131333333Y-91900057D02*
X131238095Y-92042914D01*
X131238095Y-92042914D02*
X131190476Y-92233390D01*
X131190476Y-92233390D02*
X131190476Y-92614342D01*
X131190476Y-92614342D02*
X131238095Y-92709580D01*
X131238095Y-92709580D02*
X131285714Y-92757200D01*
X131285714Y-92757200D02*
X131380952Y-92804819D01*
X131380952Y-92804819D02*
X131571428Y-92804819D01*
X131571428Y-92804819D02*
X131666666Y-92757200D01*
X131666666Y-92757200D02*
X131714285Y-92709580D01*
X131714285Y-92709580D02*
X131761904Y-92614342D01*
X131761904Y-92614342D02*
X131761904Y-92376247D01*
X131761904Y-92376247D02*
X131714285Y-92281009D01*
X131714285Y-92281009D02*
X131666666Y-92233390D01*
X131666666Y-92233390D02*
X131571428Y-92185771D01*
X131571428Y-92185771D02*
X131380952Y-92185771D01*
X131380952Y-92185771D02*
X131285714Y-92233390D01*
X131285714Y-92233390D02*
X131238095Y-92281009D01*
X131238095Y-92281009D02*
X131190476Y-92376247D01*
X120004819Y-89842857D02*
X119528628Y-90176190D01*
X120004819Y-90414285D02*
X119004819Y-90414285D01*
X119004819Y-90414285D02*
X119004819Y-90033333D01*
X119004819Y-90033333D02*
X119052438Y-89938095D01*
X119052438Y-89938095D02*
X119100057Y-89890476D01*
X119100057Y-89890476D02*
X119195295Y-89842857D01*
X119195295Y-89842857D02*
X119338152Y-89842857D01*
X119338152Y-89842857D02*
X119433390Y-89890476D01*
X119433390Y-89890476D02*
X119481009Y-89938095D01*
X119481009Y-89938095D02*
X119528628Y-90033333D01*
X119528628Y-90033333D02*
X119528628Y-90414285D01*
X120004819Y-88890476D02*
X120004819Y-89461904D01*
X120004819Y-89176190D02*
X119004819Y-89176190D01*
X119004819Y-89176190D02*
X119147676Y-89271428D01*
X119147676Y-89271428D02*
X119242914Y-89366666D01*
X119242914Y-89366666D02*
X119290533Y-89461904D01*
X119100057Y-88509523D02*
X119052438Y-88461904D01*
X119052438Y-88461904D02*
X119004819Y-88366666D01*
X119004819Y-88366666D02*
X119004819Y-88128571D01*
X119004819Y-88128571D02*
X119052438Y-88033333D01*
X119052438Y-88033333D02*
X119100057Y-87985714D01*
X119100057Y-87985714D02*
X119195295Y-87938095D01*
X119195295Y-87938095D02*
X119290533Y-87938095D01*
X119290533Y-87938095D02*
X119433390Y-87985714D01*
X119433390Y-87985714D02*
X120004819Y-88557142D01*
X120004819Y-88557142D02*
X120004819Y-87938095D01*
X140407142Y-86904819D02*
X140073809Y-86428628D01*
X139835714Y-86904819D02*
X139835714Y-85904819D01*
X139835714Y-85904819D02*
X140216666Y-85904819D01*
X140216666Y-85904819D02*
X140311904Y-85952438D01*
X140311904Y-85952438D02*
X140359523Y-86000057D01*
X140359523Y-86000057D02*
X140407142Y-86095295D01*
X140407142Y-86095295D02*
X140407142Y-86238152D01*
X140407142Y-86238152D02*
X140359523Y-86333390D01*
X140359523Y-86333390D02*
X140311904Y-86381009D01*
X140311904Y-86381009D02*
X140216666Y-86428628D01*
X140216666Y-86428628D02*
X139835714Y-86428628D01*
X140788095Y-86000057D02*
X140835714Y-85952438D01*
X140835714Y-85952438D02*
X140930952Y-85904819D01*
X140930952Y-85904819D02*
X141169047Y-85904819D01*
X141169047Y-85904819D02*
X141264285Y-85952438D01*
X141264285Y-85952438D02*
X141311904Y-86000057D01*
X141311904Y-86000057D02*
X141359523Y-86095295D01*
X141359523Y-86095295D02*
X141359523Y-86190533D01*
X141359523Y-86190533D02*
X141311904Y-86333390D01*
X141311904Y-86333390D02*
X140740476Y-86904819D01*
X140740476Y-86904819D02*
X141359523Y-86904819D01*
X142311904Y-86904819D02*
X141740476Y-86904819D01*
X142026190Y-86904819D02*
X142026190Y-85904819D01*
X142026190Y-85904819D02*
X141930952Y-86047676D01*
X141930952Y-86047676D02*
X141835714Y-86142914D01*
X141835714Y-86142914D02*
X141740476Y-86190533D01*
X127954761Y-81250057D02*
X127859523Y-81202438D01*
X127859523Y-81202438D02*
X127764285Y-81107200D01*
X127764285Y-81107200D02*
X127621428Y-80964342D01*
X127621428Y-80964342D02*
X127526190Y-80916723D01*
X127526190Y-80916723D02*
X127430952Y-80916723D01*
X127478571Y-81154819D02*
X127383333Y-81107200D01*
X127383333Y-81107200D02*
X127288095Y-81011961D01*
X127288095Y-81011961D02*
X127240476Y-80821485D01*
X127240476Y-80821485D02*
X127240476Y-80488152D01*
X127240476Y-80488152D02*
X127288095Y-80297676D01*
X127288095Y-80297676D02*
X127383333Y-80202438D01*
X127383333Y-80202438D02*
X127478571Y-80154819D01*
X127478571Y-80154819D02*
X127669047Y-80154819D01*
X127669047Y-80154819D02*
X127764285Y-80202438D01*
X127764285Y-80202438D02*
X127859523Y-80297676D01*
X127859523Y-80297676D02*
X127907142Y-80488152D01*
X127907142Y-80488152D02*
X127907142Y-80821485D01*
X127907142Y-80821485D02*
X127859523Y-81011961D01*
X127859523Y-81011961D02*
X127764285Y-81107200D01*
X127764285Y-81107200D02*
X127669047Y-81154819D01*
X127669047Y-81154819D02*
X127478571Y-81154819D01*
X128811904Y-80154819D02*
X128335714Y-80154819D01*
X128335714Y-80154819D02*
X128288095Y-80631009D01*
X128288095Y-80631009D02*
X128335714Y-80583390D01*
X128335714Y-80583390D02*
X128430952Y-80535771D01*
X128430952Y-80535771D02*
X128669047Y-80535771D01*
X128669047Y-80535771D02*
X128764285Y-80583390D01*
X128764285Y-80583390D02*
X128811904Y-80631009D01*
X128811904Y-80631009D02*
X128859523Y-80726247D01*
X128859523Y-80726247D02*
X128859523Y-80964342D01*
X128859523Y-80964342D02*
X128811904Y-81059580D01*
X128811904Y-81059580D02*
X128764285Y-81107200D01*
X128764285Y-81107200D02*
X128669047Y-81154819D01*
X128669047Y-81154819D02*
X128430952Y-81154819D01*
X128430952Y-81154819D02*
X128335714Y-81107200D01*
X128335714Y-81107200D02*
X128288095Y-81059580D01*
X110883333Y-81084819D02*
X110550000Y-80608628D01*
X110311905Y-81084819D02*
X110311905Y-80084819D01*
X110311905Y-80084819D02*
X110692857Y-80084819D01*
X110692857Y-80084819D02*
X110788095Y-80132438D01*
X110788095Y-80132438D02*
X110835714Y-80180057D01*
X110835714Y-80180057D02*
X110883333Y-80275295D01*
X110883333Y-80275295D02*
X110883333Y-80418152D01*
X110883333Y-80418152D02*
X110835714Y-80513390D01*
X110835714Y-80513390D02*
X110788095Y-80561009D01*
X110788095Y-80561009D02*
X110692857Y-80608628D01*
X110692857Y-80608628D02*
X110311905Y-80608628D01*
X111788095Y-80084819D02*
X111311905Y-80084819D01*
X111311905Y-80084819D02*
X111264286Y-80561009D01*
X111264286Y-80561009D02*
X111311905Y-80513390D01*
X111311905Y-80513390D02*
X111407143Y-80465771D01*
X111407143Y-80465771D02*
X111645238Y-80465771D01*
X111645238Y-80465771D02*
X111740476Y-80513390D01*
X111740476Y-80513390D02*
X111788095Y-80561009D01*
X111788095Y-80561009D02*
X111835714Y-80656247D01*
X111835714Y-80656247D02*
X111835714Y-80894342D01*
X111835714Y-80894342D02*
X111788095Y-80989580D01*
X111788095Y-80989580D02*
X111740476Y-81037200D01*
X111740476Y-81037200D02*
X111645238Y-81084819D01*
X111645238Y-81084819D02*
X111407143Y-81084819D01*
X111407143Y-81084819D02*
X111311905Y-81037200D01*
X111311905Y-81037200D02*
X111264286Y-80989580D01*
X131907142Y-81684819D02*
X131573809Y-81208628D01*
X131335714Y-81684819D02*
X131335714Y-80684819D01*
X131335714Y-80684819D02*
X131716666Y-80684819D01*
X131716666Y-80684819D02*
X131811904Y-80732438D01*
X131811904Y-80732438D02*
X131859523Y-80780057D01*
X131859523Y-80780057D02*
X131907142Y-80875295D01*
X131907142Y-80875295D02*
X131907142Y-81018152D01*
X131907142Y-81018152D02*
X131859523Y-81113390D01*
X131859523Y-81113390D02*
X131811904Y-81161009D01*
X131811904Y-81161009D02*
X131716666Y-81208628D01*
X131716666Y-81208628D02*
X131335714Y-81208628D01*
X132859523Y-81684819D02*
X132288095Y-81684819D01*
X132573809Y-81684819D02*
X132573809Y-80684819D01*
X132573809Y-80684819D02*
X132478571Y-80827676D01*
X132478571Y-80827676D02*
X132383333Y-80922914D01*
X132383333Y-80922914D02*
X132288095Y-80970533D01*
X133192857Y-80684819D02*
X133859523Y-80684819D01*
X133859523Y-80684819D02*
X133430952Y-81684819D01*
X133504819Y-79642857D02*
X133028628Y-79976190D01*
X133504819Y-80214285D02*
X132504819Y-80214285D01*
X132504819Y-80214285D02*
X132504819Y-79833333D01*
X132504819Y-79833333D02*
X132552438Y-79738095D01*
X132552438Y-79738095D02*
X132600057Y-79690476D01*
X132600057Y-79690476D02*
X132695295Y-79642857D01*
X132695295Y-79642857D02*
X132838152Y-79642857D01*
X132838152Y-79642857D02*
X132933390Y-79690476D01*
X132933390Y-79690476D02*
X132981009Y-79738095D01*
X132981009Y-79738095D02*
X133028628Y-79833333D01*
X133028628Y-79833333D02*
X133028628Y-80214285D01*
X133504819Y-78690476D02*
X133504819Y-79261904D01*
X133504819Y-78976190D02*
X132504819Y-78976190D01*
X132504819Y-78976190D02*
X132647676Y-79071428D01*
X132647676Y-79071428D02*
X132742914Y-79166666D01*
X132742914Y-79166666D02*
X132790533Y-79261904D01*
X132504819Y-78357142D02*
X132504819Y-77738095D01*
X132504819Y-77738095D02*
X132885771Y-78071428D01*
X132885771Y-78071428D02*
X132885771Y-77928571D01*
X132885771Y-77928571D02*
X132933390Y-77833333D01*
X132933390Y-77833333D02*
X132981009Y-77785714D01*
X132981009Y-77785714D02*
X133076247Y-77738095D01*
X133076247Y-77738095D02*
X133314342Y-77738095D01*
X133314342Y-77738095D02*
X133409580Y-77785714D01*
X133409580Y-77785714D02*
X133457200Y-77833333D01*
X133457200Y-77833333D02*
X133504819Y-77928571D01*
X133504819Y-77928571D02*
X133504819Y-78214285D01*
X133504819Y-78214285D02*
X133457200Y-78309523D01*
X133457200Y-78309523D02*
X133409580Y-78357142D01*
X148407142Y-87084819D02*
X148073809Y-86608628D01*
X147835714Y-87084819D02*
X147835714Y-86084819D01*
X147835714Y-86084819D02*
X148216666Y-86084819D01*
X148216666Y-86084819D02*
X148311904Y-86132438D01*
X148311904Y-86132438D02*
X148359523Y-86180057D01*
X148359523Y-86180057D02*
X148407142Y-86275295D01*
X148407142Y-86275295D02*
X148407142Y-86418152D01*
X148407142Y-86418152D02*
X148359523Y-86513390D01*
X148359523Y-86513390D02*
X148311904Y-86561009D01*
X148311904Y-86561009D02*
X148216666Y-86608628D01*
X148216666Y-86608628D02*
X147835714Y-86608628D01*
X148788095Y-86180057D02*
X148835714Y-86132438D01*
X148835714Y-86132438D02*
X148930952Y-86084819D01*
X148930952Y-86084819D02*
X149169047Y-86084819D01*
X149169047Y-86084819D02*
X149264285Y-86132438D01*
X149264285Y-86132438D02*
X149311904Y-86180057D01*
X149311904Y-86180057D02*
X149359523Y-86275295D01*
X149359523Y-86275295D02*
X149359523Y-86370533D01*
X149359523Y-86370533D02*
X149311904Y-86513390D01*
X149311904Y-86513390D02*
X148740476Y-87084819D01*
X148740476Y-87084819D02*
X149359523Y-87084819D01*
X149978571Y-86084819D02*
X150073809Y-86084819D01*
X150073809Y-86084819D02*
X150169047Y-86132438D01*
X150169047Y-86132438D02*
X150216666Y-86180057D01*
X150216666Y-86180057D02*
X150264285Y-86275295D01*
X150264285Y-86275295D02*
X150311904Y-86465771D01*
X150311904Y-86465771D02*
X150311904Y-86703866D01*
X150311904Y-86703866D02*
X150264285Y-86894342D01*
X150264285Y-86894342D02*
X150216666Y-86989580D01*
X150216666Y-86989580D02*
X150169047Y-87037200D01*
X150169047Y-87037200D02*
X150073809Y-87084819D01*
X150073809Y-87084819D02*
X149978571Y-87084819D01*
X149978571Y-87084819D02*
X149883333Y-87037200D01*
X149883333Y-87037200D02*
X149835714Y-86989580D01*
X149835714Y-86989580D02*
X149788095Y-86894342D01*
X149788095Y-86894342D02*
X149740476Y-86703866D01*
X149740476Y-86703866D02*
X149740476Y-86465771D01*
X149740476Y-86465771D02*
X149788095Y-86275295D01*
X149788095Y-86275295D02*
X149835714Y-86180057D01*
X149835714Y-86180057D02*
X149883333Y-86132438D01*
X149883333Y-86132438D02*
X149978571Y-86084819D01*
X126883333Y-86334819D02*
X126550000Y-85858628D01*
X126311905Y-86334819D02*
X126311905Y-85334819D01*
X126311905Y-85334819D02*
X126692857Y-85334819D01*
X126692857Y-85334819D02*
X126788095Y-85382438D01*
X126788095Y-85382438D02*
X126835714Y-85430057D01*
X126835714Y-85430057D02*
X126883333Y-85525295D01*
X126883333Y-85525295D02*
X126883333Y-85668152D01*
X126883333Y-85668152D02*
X126835714Y-85763390D01*
X126835714Y-85763390D02*
X126788095Y-85811009D01*
X126788095Y-85811009D02*
X126692857Y-85858628D01*
X126692857Y-85858628D02*
X126311905Y-85858628D01*
X127454762Y-85763390D02*
X127359524Y-85715771D01*
X127359524Y-85715771D02*
X127311905Y-85668152D01*
X127311905Y-85668152D02*
X127264286Y-85572914D01*
X127264286Y-85572914D02*
X127264286Y-85525295D01*
X127264286Y-85525295D02*
X127311905Y-85430057D01*
X127311905Y-85430057D02*
X127359524Y-85382438D01*
X127359524Y-85382438D02*
X127454762Y-85334819D01*
X127454762Y-85334819D02*
X127645238Y-85334819D01*
X127645238Y-85334819D02*
X127740476Y-85382438D01*
X127740476Y-85382438D02*
X127788095Y-85430057D01*
X127788095Y-85430057D02*
X127835714Y-85525295D01*
X127835714Y-85525295D02*
X127835714Y-85572914D01*
X127835714Y-85572914D02*
X127788095Y-85668152D01*
X127788095Y-85668152D02*
X127740476Y-85715771D01*
X127740476Y-85715771D02*
X127645238Y-85763390D01*
X127645238Y-85763390D02*
X127454762Y-85763390D01*
X127454762Y-85763390D02*
X127359524Y-85811009D01*
X127359524Y-85811009D02*
X127311905Y-85858628D01*
X127311905Y-85858628D02*
X127264286Y-85953866D01*
X127264286Y-85953866D02*
X127264286Y-86144342D01*
X127264286Y-86144342D02*
X127311905Y-86239580D01*
X127311905Y-86239580D02*
X127359524Y-86287200D01*
X127359524Y-86287200D02*
X127454762Y-86334819D01*
X127454762Y-86334819D02*
X127645238Y-86334819D01*
X127645238Y-86334819D02*
X127740476Y-86287200D01*
X127740476Y-86287200D02*
X127788095Y-86239580D01*
X127788095Y-86239580D02*
X127835714Y-86144342D01*
X127835714Y-86144342D02*
X127835714Y-85953866D01*
X127835714Y-85953866D02*
X127788095Y-85858628D01*
X127788095Y-85858628D02*
X127740476Y-85811009D01*
X127740476Y-85811009D02*
X127645238Y-85763390D01*
X110883333Y-94904819D02*
X110550000Y-94428628D01*
X110311905Y-94904819D02*
X110311905Y-93904819D01*
X110311905Y-93904819D02*
X110692857Y-93904819D01*
X110692857Y-93904819D02*
X110788095Y-93952438D01*
X110788095Y-93952438D02*
X110835714Y-94000057D01*
X110835714Y-94000057D02*
X110883333Y-94095295D01*
X110883333Y-94095295D02*
X110883333Y-94238152D01*
X110883333Y-94238152D02*
X110835714Y-94333390D01*
X110835714Y-94333390D02*
X110788095Y-94381009D01*
X110788095Y-94381009D02*
X110692857Y-94428628D01*
X110692857Y-94428628D02*
X110311905Y-94428628D01*
X111740476Y-94238152D02*
X111740476Y-94904819D01*
X111502381Y-93857200D02*
X111264286Y-94571485D01*
X111264286Y-94571485D02*
X111883333Y-94571485D01*
X118883333Y-86154819D02*
X118550000Y-85678628D01*
X118311905Y-86154819D02*
X118311905Y-85154819D01*
X118311905Y-85154819D02*
X118692857Y-85154819D01*
X118692857Y-85154819D02*
X118788095Y-85202438D01*
X118788095Y-85202438D02*
X118835714Y-85250057D01*
X118835714Y-85250057D02*
X118883333Y-85345295D01*
X118883333Y-85345295D02*
X118883333Y-85488152D01*
X118883333Y-85488152D02*
X118835714Y-85583390D01*
X118835714Y-85583390D02*
X118788095Y-85631009D01*
X118788095Y-85631009D02*
X118692857Y-85678628D01*
X118692857Y-85678628D02*
X118311905Y-85678628D01*
X119359524Y-86154819D02*
X119550000Y-86154819D01*
X119550000Y-86154819D02*
X119645238Y-86107200D01*
X119645238Y-86107200D02*
X119692857Y-86059580D01*
X119692857Y-86059580D02*
X119788095Y-85916723D01*
X119788095Y-85916723D02*
X119835714Y-85726247D01*
X119835714Y-85726247D02*
X119835714Y-85345295D01*
X119835714Y-85345295D02*
X119788095Y-85250057D01*
X119788095Y-85250057D02*
X119740476Y-85202438D01*
X119740476Y-85202438D02*
X119645238Y-85154819D01*
X119645238Y-85154819D02*
X119454762Y-85154819D01*
X119454762Y-85154819D02*
X119359524Y-85202438D01*
X119359524Y-85202438D02*
X119311905Y-85250057D01*
X119311905Y-85250057D02*
X119264286Y-85345295D01*
X119264286Y-85345295D02*
X119264286Y-85583390D01*
X119264286Y-85583390D02*
X119311905Y-85678628D01*
X119311905Y-85678628D02*
X119359524Y-85726247D01*
X119359524Y-85726247D02*
X119454762Y-85773866D01*
X119454762Y-85773866D02*
X119645238Y-85773866D01*
X119645238Y-85773866D02*
X119740476Y-85726247D01*
X119740476Y-85726247D02*
X119788095Y-85678628D01*
X119788095Y-85678628D02*
X119835714Y-85583390D01*
X111504819Y-78566666D02*
X111028628Y-78899999D01*
X111504819Y-79138094D02*
X110504819Y-79138094D01*
X110504819Y-79138094D02*
X110504819Y-78757142D01*
X110504819Y-78757142D02*
X110552438Y-78661904D01*
X110552438Y-78661904D02*
X110600057Y-78614285D01*
X110600057Y-78614285D02*
X110695295Y-78566666D01*
X110695295Y-78566666D02*
X110838152Y-78566666D01*
X110838152Y-78566666D02*
X110933390Y-78614285D01*
X110933390Y-78614285D02*
X110981009Y-78661904D01*
X110981009Y-78661904D02*
X111028628Y-78757142D01*
X111028628Y-78757142D02*
X111028628Y-79138094D01*
X111504819Y-77614285D02*
X111504819Y-78185713D01*
X111504819Y-77899999D02*
X110504819Y-77899999D01*
X110504819Y-77899999D02*
X110647676Y-77995237D01*
X110647676Y-77995237D02*
X110742914Y-78090475D01*
X110742914Y-78090475D02*
X110790533Y-78185713D01*
X115883333Y-86084819D02*
X115550000Y-85608628D01*
X115311905Y-86084819D02*
X115311905Y-85084819D01*
X115311905Y-85084819D02*
X115692857Y-85084819D01*
X115692857Y-85084819D02*
X115788095Y-85132438D01*
X115788095Y-85132438D02*
X115835714Y-85180057D01*
X115835714Y-85180057D02*
X115883333Y-85275295D01*
X115883333Y-85275295D02*
X115883333Y-85418152D01*
X115883333Y-85418152D02*
X115835714Y-85513390D01*
X115835714Y-85513390D02*
X115788095Y-85561009D01*
X115788095Y-85561009D02*
X115692857Y-85608628D01*
X115692857Y-85608628D02*
X115311905Y-85608628D01*
X116264286Y-85180057D02*
X116311905Y-85132438D01*
X116311905Y-85132438D02*
X116407143Y-85084819D01*
X116407143Y-85084819D02*
X116645238Y-85084819D01*
X116645238Y-85084819D02*
X116740476Y-85132438D01*
X116740476Y-85132438D02*
X116788095Y-85180057D01*
X116788095Y-85180057D02*
X116835714Y-85275295D01*
X116835714Y-85275295D02*
X116835714Y-85370533D01*
X116835714Y-85370533D02*
X116788095Y-85513390D01*
X116788095Y-85513390D02*
X116216667Y-86084819D01*
X116216667Y-86084819D02*
X116835714Y-86084819D01*
X132404761Y-77550057D02*
X132309523Y-77502438D01*
X132309523Y-77502438D02*
X132214285Y-77407200D01*
X132214285Y-77407200D02*
X132071428Y-77264342D01*
X132071428Y-77264342D02*
X131976190Y-77216723D01*
X131976190Y-77216723D02*
X131880952Y-77216723D01*
X131928571Y-77454819D02*
X131833333Y-77407200D01*
X131833333Y-77407200D02*
X131738095Y-77311961D01*
X131738095Y-77311961D02*
X131690476Y-77121485D01*
X131690476Y-77121485D02*
X131690476Y-76788152D01*
X131690476Y-76788152D02*
X131738095Y-76597676D01*
X131738095Y-76597676D02*
X131833333Y-76502438D01*
X131833333Y-76502438D02*
X131928571Y-76454819D01*
X131928571Y-76454819D02*
X132119047Y-76454819D01*
X132119047Y-76454819D02*
X132214285Y-76502438D01*
X132214285Y-76502438D02*
X132309523Y-76597676D01*
X132309523Y-76597676D02*
X132357142Y-76788152D01*
X132357142Y-76788152D02*
X132357142Y-77121485D01*
X132357142Y-77121485D02*
X132309523Y-77311961D01*
X132309523Y-77311961D02*
X132214285Y-77407200D01*
X132214285Y-77407200D02*
X132119047Y-77454819D01*
X132119047Y-77454819D02*
X131928571Y-77454819D01*
X133214285Y-76788152D02*
X133214285Y-77454819D01*
X132976190Y-76407200D02*
X132738095Y-77121485D01*
X132738095Y-77121485D02*
X133357142Y-77121485D01*
X114704761Y-93500057D02*
X114609523Y-93452438D01*
X114609523Y-93452438D02*
X114514285Y-93357200D01*
X114514285Y-93357200D02*
X114371428Y-93214342D01*
X114371428Y-93214342D02*
X114276190Y-93166723D01*
X114276190Y-93166723D02*
X114180952Y-93166723D01*
X114228571Y-93404819D02*
X114133333Y-93357200D01*
X114133333Y-93357200D02*
X114038095Y-93261961D01*
X114038095Y-93261961D02*
X113990476Y-93071485D01*
X113990476Y-93071485D02*
X113990476Y-92738152D01*
X113990476Y-92738152D02*
X114038095Y-92547676D01*
X114038095Y-92547676D02*
X114133333Y-92452438D01*
X114133333Y-92452438D02*
X114228571Y-92404819D01*
X114228571Y-92404819D02*
X114419047Y-92404819D01*
X114419047Y-92404819D02*
X114514285Y-92452438D01*
X114514285Y-92452438D02*
X114609523Y-92547676D01*
X114609523Y-92547676D02*
X114657142Y-92738152D01*
X114657142Y-92738152D02*
X114657142Y-93071485D01*
X114657142Y-93071485D02*
X114609523Y-93261961D01*
X114609523Y-93261961D02*
X114514285Y-93357200D01*
X114514285Y-93357200D02*
X114419047Y-93404819D01*
X114419047Y-93404819D02*
X114228571Y-93404819D01*
X114990476Y-92404819D02*
X115609523Y-92404819D01*
X115609523Y-92404819D02*
X115276190Y-92785771D01*
X115276190Y-92785771D02*
X115419047Y-92785771D01*
X115419047Y-92785771D02*
X115514285Y-92833390D01*
X115514285Y-92833390D02*
X115561904Y-92881009D01*
X115561904Y-92881009D02*
X115609523Y-92976247D01*
X115609523Y-92976247D02*
X115609523Y-93214342D01*
X115609523Y-93214342D02*
X115561904Y-93309580D01*
X115561904Y-93309580D02*
X115514285Y-93357200D01*
X115514285Y-93357200D02*
X115419047Y-93404819D01*
X115419047Y-93404819D02*
X115133333Y-93404819D01*
X115133333Y-93404819D02*
X115038095Y-93357200D01*
X115038095Y-93357200D02*
X114990476Y-93309580D01*
X143404761Y-78050057D02*
X143309523Y-78002438D01*
X143309523Y-78002438D02*
X143214285Y-77907200D01*
X143214285Y-77907200D02*
X143071428Y-77764342D01*
X143071428Y-77764342D02*
X142976190Y-77716723D01*
X142976190Y-77716723D02*
X142880952Y-77716723D01*
X142928571Y-77954819D02*
X142833333Y-77907200D01*
X142833333Y-77907200D02*
X142738095Y-77811961D01*
X142738095Y-77811961D02*
X142690476Y-77621485D01*
X142690476Y-77621485D02*
X142690476Y-77288152D01*
X142690476Y-77288152D02*
X142738095Y-77097676D01*
X142738095Y-77097676D02*
X142833333Y-77002438D01*
X142833333Y-77002438D02*
X142928571Y-76954819D01*
X142928571Y-76954819D02*
X143119047Y-76954819D01*
X143119047Y-76954819D02*
X143214285Y-77002438D01*
X143214285Y-77002438D02*
X143309523Y-77097676D01*
X143309523Y-77097676D02*
X143357142Y-77288152D01*
X143357142Y-77288152D02*
X143357142Y-77621485D01*
X143357142Y-77621485D02*
X143309523Y-77811961D01*
X143309523Y-77811961D02*
X143214285Y-77907200D01*
X143214285Y-77907200D02*
X143119047Y-77954819D01*
X143119047Y-77954819D02*
X142928571Y-77954819D01*
X143690476Y-76954819D02*
X144357142Y-76954819D01*
X144357142Y-76954819D02*
X143928571Y-77954819D01*
X125704761Y-93750057D02*
X125609523Y-93702438D01*
X125609523Y-93702438D02*
X125514285Y-93607200D01*
X125514285Y-93607200D02*
X125371428Y-93464342D01*
X125371428Y-93464342D02*
X125276190Y-93416723D01*
X125276190Y-93416723D02*
X125180952Y-93416723D01*
X125228571Y-93654819D02*
X125133333Y-93607200D01*
X125133333Y-93607200D02*
X125038095Y-93511961D01*
X125038095Y-93511961D02*
X124990476Y-93321485D01*
X124990476Y-93321485D02*
X124990476Y-92988152D01*
X124990476Y-92988152D02*
X125038095Y-92797676D01*
X125038095Y-92797676D02*
X125133333Y-92702438D01*
X125133333Y-92702438D02*
X125228571Y-92654819D01*
X125228571Y-92654819D02*
X125419047Y-92654819D01*
X125419047Y-92654819D02*
X125514285Y-92702438D01*
X125514285Y-92702438D02*
X125609523Y-92797676D01*
X125609523Y-92797676D02*
X125657142Y-92988152D01*
X125657142Y-92988152D02*
X125657142Y-93321485D01*
X125657142Y-93321485D02*
X125609523Y-93511961D01*
X125609523Y-93511961D02*
X125514285Y-93607200D01*
X125514285Y-93607200D02*
X125419047Y-93654819D01*
X125419047Y-93654819D02*
X125228571Y-93654819D01*
X126514285Y-92654819D02*
X126323809Y-92654819D01*
X126323809Y-92654819D02*
X126228571Y-92702438D01*
X126228571Y-92702438D02*
X126180952Y-92750057D01*
X126180952Y-92750057D02*
X126085714Y-92892914D01*
X126085714Y-92892914D02*
X126038095Y-93083390D01*
X126038095Y-93083390D02*
X126038095Y-93464342D01*
X126038095Y-93464342D02*
X126085714Y-93559580D01*
X126085714Y-93559580D02*
X126133333Y-93607200D01*
X126133333Y-93607200D02*
X126228571Y-93654819D01*
X126228571Y-93654819D02*
X126419047Y-93654819D01*
X126419047Y-93654819D02*
X126514285Y-93607200D01*
X126514285Y-93607200D02*
X126561904Y-93559580D01*
X126561904Y-93559580D02*
X126609523Y-93464342D01*
X126609523Y-93464342D02*
X126609523Y-93226247D01*
X126609523Y-93226247D02*
X126561904Y-93131009D01*
X126561904Y-93131009D02*
X126514285Y-93083390D01*
X126514285Y-93083390D02*
X126419047Y-93035771D01*
X126419047Y-93035771D02*
X126228571Y-93035771D01*
X126228571Y-93035771D02*
X126133333Y-93083390D01*
X126133333Y-93083390D02*
X126085714Y-93131009D01*
X126085714Y-93131009D02*
X126038095Y-93226247D01*
X146357142Y-95904819D02*
X146023809Y-95428628D01*
X145785714Y-95904819D02*
X145785714Y-94904819D01*
X145785714Y-94904819D02*
X146166666Y-94904819D01*
X146166666Y-94904819D02*
X146261904Y-94952438D01*
X146261904Y-94952438D02*
X146309523Y-95000057D01*
X146309523Y-95000057D02*
X146357142Y-95095295D01*
X146357142Y-95095295D02*
X146357142Y-95238152D01*
X146357142Y-95238152D02*
X146309523Y-95333390D01*
X146309523Y-95333390D02*
X146261904Y-95381009D01*
X146261904Y-95381009D02*
X146166666Y-95428628D01*
X146166666Y-95428628D02*
X145785714Y-95428628D01*
X146738095Y-95000057D02*
X146785714Y-94952438D01*
X146785714Y-94952438D02*
X146880952Y-94904819D01*
X146880952Y-94904819D02*
X147119047Y-94904819D01*
X147119047Y-94904819D02*
X147214285Y-94952438D01*
X147214285Y-94952438D02*
X147261904Y-95000057D01*
X147261904Y-95000057D02*
X147309523Y-95095295D01*
X147309523Y-95095295D02*
X147309523Y-95190533D01*
X147309523Y-95190533D02*
X147261904Y-95333390D01*
X147261904Y-95333390D02*
X146690476Y-95904819D01*
X146690476Y-95904819D02*
X147309523Y-95904819D01*
X147690476Y-95000057D02*
X147738095Y-94952438D01*
X147738095Y-94952438D02*
X147833333Y-94904819D01*
X147833333Y-94904819D02*
X148071428Y-94904819D01*
X148071428Y-94904819D02*
X148166666Y-94952438D01*
X148166666Y-94952438D02*
X148214285Y-95000057D01*
X148214285Y-95000057D02*
X148261904Y-95095295D01*
X148261904Y-95095295D02*
X148261904Y-95190533D01*
X148261904Y-95190533D02*
X148214285Y-95333390D01*
X148214285Y-95333390D02*
X147642857Y-95904819D01*
X147642857Y-95904819D02*
X148261904Y-95904819D01*
X138954761Y-81600057D02*
X138859523Y-81552438D01*
X138859523Y-81552438D02*
X138764285Y-81457200D01*
X138764285Y-81457200D02*
X138621428Y-81314342D01*
X138621428Y-81314342D02*
X138526190Y-81266723D01*
X138526190Y-81266723D02*
X138430952Y-81266723D01*
X138478571Y-81504819D02*
X138383333Y-81457200D01*
X138383333Y-81457200D02*
X138288095Y-81361961D01*
X138288095Y-81361961D02*
X138240476Y-81171485D01*
X138240476Y-81171485D02*
X138240476Y-80838152D01*
X138240476Y-80838152D02*
X138288095Y-80647676D01*
X138288095Y-80647676D02*
X138383333Y-80552438D01*
X138383333Y-80552438D02*
X138478571Y-80504819D01*
X138478571Y-80504819D02*
X138669047Y-80504819D01*
X138669047Y-80504819D02*
X138764285Y-80552438D01*
X138764285Y-80552438D02*
X138859523Y-80647676D01*
X138859523Y-80647676D02*
X138907142Y-80838152D01*
X138907142Y-80838152D02*
X138907142Y-81171485D01*
X138907142Y-81171485D02*
X138859523Y-81361961D01*
X138859523Y-81361961D02*
X138764285Y-81457200D01*
X138764285Y-81457200D02*
X138669047Y-81504819D01*
X138669047Y-81504819D02*
X138478571Y-81504819D01*
X139478571Y-80933390D02*
X139383333Y-80885771D01*
X139383333Y-80885771D02*
X139335714Y-80838152D01*
X139335714Y-80838152D02*
X139288095Y-80742914D01*
X139288095Y-80742914D02*
X139288095Y-80695295D01*
X139288095Y-80695295D02*
X139335714Y-80600057D01*
X139335714Y-80600057D02*
X139383333Y-80552438D01*
X139383333Y-80552438D02*
X139478571Y-80504819D01*
X139478571Y-80504819D02*
X139669047Y-80504819D01*
X139669047Y-80504819D02*
X139764285Y-80552438D01*
X139764285Y-80552438D02*
X139811904Y-80600057D01*
X139811904Y-80600057D02*
X139859523Y-80695295D01*
X139859523Y-80695295D02*
X139859523Y-80742914D01*
X139859523Y-80742914D02*
X139811904Y-80838152D01*
X139811904Y-80838152D02*
X139764285Y-80885771D01*
X139764285Y-80885771D02*
X139669047Y-80933390D01*
X139669047Y-80933390D02*
X139478571Y-80933390D01*
X139478571Y-80933390D02*
X139383333Y-80981009D01*
X139383333Y-80981009D02*
X139335714Y-81028628D01*
X139335714Y-81028628D02*
X139288095Y-81123866D01*
X139288095Y-81123866D02*
X139288095Y-81314342D01*
X139288095Y-81314342D02*
X139335714Y-81409580D01*
X139335714Y-81409580D02*
X139383333Y-81457200D01*
X139383333Y-81457200D02*
X139478571Y-81504819D01*
X139478571Y-81504819D02*
X139669047Y-81504819D01*
X139669047Y-81504819D02*
X139764285Y-81457200D01*
X139764285Y-81457200D02*
X139811904Y-81409580D01*
X139811904Y-81409580D02*
X139859523Y-81314342D01*
X139859523Y-81314342D02*
X139859523Y-81123866D01*
X139859523Y-81123866D02*
X139811904Y-81028628D01*
X139811904Y-81028628D02*
X139764285Y-80981009D01*
X139764285Y-80981009D02*
X139669047Y-80933390D01*
X129407142Y-86504819D02*
X129073809Y-86028628D01*
X128835714Y-86504819D02*
X128835714Y-85504819D01*
X128835714Y-85504819D02*
X129216666Y-85504819D01*
X129216666Y-85504819D02*
X129311904Y-85552438D01*
X129311904Y-85552438D02*
X129359523Y-85600057D01*
X129359523Y-85600057D02*
X129407142Y-85695295D01*
X129407142Y-85695295D02*
X129407142Y-85838152D01*
X129407142Y-85838152D02*
X129359523Y-85933390D01*
X129359523Y-85933390D02*
X129311904Y-85981009D01*
X129311904Y-85981009D02*
X129216666Y-86028628D01*
X129216666Y-86028628D02*
X128835714Y-86028628D01*
X130359523Y-86504819D02*
X129788095Y-86504819D01*
X130073809Y-86504819D02*
X130073809Y-85504819D01*
X130073809Y-85504819D02*
X129978571Y-85647676D01*
X129978571Y-85647676D02*
X129883333Y-85742914D01*
X129883333Y-85742914D02*
X129788095Y-85790533D01*
X131264285Y-85504819D02*
X130788095Y-85504819D01*
X130788095Y-85504819D02*
X130740476Y-85981009D01*
X130740476Y-85981009D02*
X130788095Y-85933390D01*
X130788095Y-85933390D02*
X130883333Y-85885771D01*
X130883333Y-85885771D02*
X131121428Y-85885771D01*
X131121428Y-85885771D02*
X131216666Y-85933390D01*
X131216666Y-85933390D02*
X131264285Y-85981009D01*
X131264285Y-85981009D02*
X131311904Y-86076247D01*
X131311904Y-86076247D02*
X131311904Y-86314342D01*
X131311904Y-86314342D02*
X131264285Y-86409580D01*
X131264285Y-86409580D02*
X131216666Y-86457200D01*
X131216666Y-86457200D02*
X131121428Y-86504819D01*
X131121428Y-86504819D02*
X130883333Y-86504819D01*
X130883333Y-86504819D02*
X130788095Y-86457200D01*
X130788095Y-86457200D02*
X130740476Y-86409580D01*
X142004819Y-90592857D02*
X141528628Y-90926190D01*
X142004819Y-91164285D02*
X141004819Y-91164285D01*
X141004819Y-91164285D02*
X141004819Y-90783333D01*
X141004819Y-90783333D02*
X141052438Y-90688095D01*
X141052438Y-90688095D02*
X141100057Y-90640476D01*
X141100057Y-90640476D02*
X141195295Y-90592857D01*
X141195295Y-90592857D02*
X141338152Y-90592857D01*
X141338152Y-90592857D02*
X141433390Y-90640476D01*
X141433390Y-90640476D02*
X141481009Y-90688095D01*
X141481009Y-90688095D02*
X141528628Y-90783333D01*
X141528628Y-90783333D02*
X141528628Y-91164285D01*
X141100057Y-90211904D02*
X141052438Y-90164285D01*
X141052438Y-90164285D02*
X141004819Y-90069047D01*
X141004819Y-90069047D02*
X141004819Y-89830952D01*
X141004819Y-89830952D02*
X141052438Y-89735714D01*
X141052438Y-89735714D02*
X141100057Y-89688095D01*
X141100057Y-89688095D02*
X141195295Y-89640476D01*
X141195295Y-89640476D02*
X141290533Y-89640476D01*
X141290533Y-89640476D02*
X141433390Y-89688095D01*
X141433390Y-89688095D02*
X142004819Y-90259523D01*
X142004819Y-90259523D02*
X142004819Y-89640476D01*
X141338152Y-88783333D02*
X142004819Y-88783333D01*
X140957200Y-89021428D02*
X141671485Y-89259523D01*
X141671485Y-89259523D02*
X141671485Y-88640476D01*
X144504819Y-80042857D02*
X144028628Y-80376190D01*
X144504819Y-80614285D02*
X143504819Y-80614285D01*
X143504819Y-80614285D02*
X143504819Y-80233333D01*
X143504819Y-80233333D02*
X143552438Y-80138095D01*
X143552438Y-80138095D02*
X143600057Y-80090476D01*
X143600057Y-80090476D02*
X143695295Y-80042857D01*
X143695295Y-80042857D02*
X143838152Y-80042857D01*
X143838152Y-80042857D02*
X143933390Y-80090476D01*
X143933390Y-80090476D02*
X143981009Y-80138095D01*
X143981009Y-80138095D02*
X144028628Y-80233333D01*
X144028628Y-80233333D02*
X144028628Y-80614285D01*
X144504819Y-79090476D02*
X144504819Y-79661904D01*
X144504819Y-79376190D02*
X143504819Y-79376190D01*
X143504819Y-79376190D02*
X143647676Y-79471428D01*
X143647676Y-79471428D02*
X143742914Y-79566666D01*
X143742914Y-79566666D02*
X143790533Y-79661904D01*
X144504819Y-78614285D02*
X144504819Y-78423809D01*
X144504819Y-78423809D02*
X144457200Y-78328571D01*
X144457200Y-78328571D02*
X144409580Y-78280952D01*
X144409580Y-78280952D02*
X144266723Y-78185714D01*
X144266723Y-78185714D02*
X144076247Y-78138095D01*
X144076247Y-78138095D02*
X143695295Y-78138095D01*
X143695295Y-78138095D02*
X143600057Y-78185714D01*
X143600057Y-78185714D02*
X143552438Y-78233333D01*
X143552438Y-78233333D02*
X143504819Y-78328571D01*
X143504819Y-78328571D02*
X143504819Y-78519047D01*
X143504819Y-78519047D02*
X143552438Y-78614285D01*
X143552438Y-78614285D02*
X143600057Y-78661904D01*
X143600057Y-78661904D02*
X143695295Y-78709523D01*
X143695295Y-78709523D02*
X143933390Y-78709523D01*
X143933390Y-78709523D02*
X144028628Y-78661904D01*
X144028628Y-78661904D02*
X144076247Y-78614285D01*
X144076247Y-78614285D02*
X144123866Y-78519047D01*
X144123866Y-78519047D02*
X144123866Y-78328571D01*
X144123866Y-78328571D02*
X144076247Y-78233333D01*
X144076247Y-78233333D02*
X144028628Y-78185714D01*
X144028628Y-78185714D02*
X143933390Y-78138095D01*
D11*
%TO.C,Q12*%
X148010000Y-89870000D02*
X147210000Y-89870000D01*
X148010000Y-89870000D02*
X148810000Y-89870000D01*
X148810000Y-89870000D02*
X148810000Y-90800000D01*
X148810000Y-93030000D02*
X147350000Y-93030000D01*
X148810000Y-93030000D02*
X148810000Y-92100000D01*
X146710000Y-89840000D02*
X146470000Y-89510000D01*
X146950000Y-89510000D01*
X146710000Y-89840000D01*
G36*
X146710000Y-89840000D02*
G01*
X146470000Y-89510000D01*
X146950000Y-89510000D01*
X146710000Y-89840000D01*
G37*
%TO.C,R10*%
X121140000Y-90772936D02*
X121140000Y-92227064D01*
X122960000Y-90772936D02*
X122960000Y-92227064D01*
%TO.C,J1*%
X117590000Y-95170000D02*
X117590000Y-97830000D01*
X140510000Y-95170000D02*
X117590000Y-95170000D01*
X140510000Y-95170000D02*
X140510000Y-97830000D01*
X140510000Y-97830000D02*
X117590000Y-97830000D01*
X141780000Y-95170000D02*
X143110000Y-95170000D01*
X143110000Y-95170000D02*
X143110000Y-96500000D01*
%TO.C,Q11*%
X150110000Y-82370000D02*
X149310000Y-82370000D01*
X150110000Y-82370000D02*
X150910000Y-82370000D01*
X150910000Y-82370000D02*
X150910000Y-83300000D01*
X150910000Y-85530000D02*
X149450000Y-85530000D01*
X150910000Y-85530000D02*
X150910000Y-84600000D01*
X148810000Y-82340000D02*
X148570000Y-82010000D01*
X149050000Y-82010000D01*
X148810000Y-82340000D01*
G36*
X148810000Y-82340000D02*
G01*
X148570000Y-82010000D01*
X149050000Y-82010000D01*
X148810000Y-82340000D01*
G37*
%TO.C,Q1*%
X117510000Y-76370000D02*
X116710000Y-76370000D01*
X117510000Y-76370000D02*
X118310000Y-76370000D01*
X118310000Y-76370000D02*
X118310000Y-77300000D01*
X118310000Y-79530000D02*
X116850000Y-79530000D01*
X118310000Y-79530000D02*
X118310000Y-78600000D01*
X116210000Y-76340000D02*
X115970000Y-76010000D01*
X116450000Y-76010000D01*
X116210000Y-76340000D01*
G36*
X116210000Y-76340000D02*
G01*
X115970000Y-76010000D01*
X116450000Y-76010000D01*
X116210000Y-76340000D01*
G37*
%TO.C,R11*%
X121872936Y-81790000D02*
X123327064Y-81790000D01*
X121872936Y-83610000D02*
X123327064Y-83610000D01*
%TO.C,R7*%
X123140000Y-77922936D02*
X123140000Y-79377064D01*
X124960000Y-77922936D02*
X124960000Y-79377064D01*
%TO.C,R14*%
X137772936Y-87140000D02*
X139227064Y-87140000D01*
X137772936Y-88960000D02*
X139227064Y-88960000D01*
%TO.C,Q2*%
X117110000Y-81370000D02*
X116310000Y-81370000D01*
X117110000Y-81370000D02*
X117910000Y-81370000D01*
X117910000Y-81370000D02*
X117910000Y-82300000D01*
X117910000Y-84530000D02*
X116450000Y-84530000D01*
X117910000Y-84530000D02*
X117910000Y-83600000D01*
X115810000Y-81340000D02*
X115570000Y-81010000D01*
X116050000Y-81010000D01*
X115810000Y-81340000D01*
G36*
X115810000Y-81340000D02*
G01*
X115570000Y-81010000D01*
X116050000Y-81010000D01*
X115810000Y-81340000D01*
G37*
%TO.C,R6*%
X110772936Y-86540000D02*
X112227064Y-86540000D01*
X110772936Y-88360000D02*
X112227064Y-88360000D01*
%TO.C,J2*%
X117590000Y-74990000D02*
X117590000Y-73660000D01*
X118920000Y-74990000D02*
X117590000Y-74990000D01*
X120190000Y-72330000D02*
X143110000Y-72330000D01*
X120190000Y-74990000D02*
X120190000Y-72330000D01*
X120190000Y-74990000D02*
X143110000Y-74990000D01*
X143110000Y-74990000D02*
X143110000Y-72330000D01*
%TO.C,Q9*%
X137010000Y-89470000D02*
X136210000Y-89470000D01*
X137010000Y-89470000D02*
X137810000Y-89470000D01*
X137810000Y-89470000D02*
X137810000Y-90400000D01*
X137810000Y-92630000D02*
X136350000Y-92630000D01*
X137810000Y-92630000D02*
X137810000Y-91700000D01*
X135710000Y-89440000D02*
X135470000Y-89110000D01*
X135950000Y-89110000D01*
X135710000Y-89440000D01*
G36*
X135710000Y-89440000D02*
G01*
X135470000Y-89110000D01*
X135950000Y-89110000D01*
X135710000Y-89440000D01*
G37*
%TO.C,R18*%
X132772936Y-87140000D02*
X134227064Y-87140000D01*
X132772936Y-88960000D02*
X134227064Y-88960000D01*
%TO.C,R3*%
X112427064Y-84040000D02*
X110972936Y-84040000D01*
X112427064Y-85860000D02*
X110972936Y-85860000D01*
%TO.C,Q10*%
X150510000Y-77370000D02*
X149710000Y-77370000D01*
X150510000Y-77370000D02*
X151310000Y-77370000D01*
X151310000Y-77370000D02*
X151310000Y-78300000D01*
X151310000Y-80530000D02*
X149850000Y-80530000D01*
X151310000Y-80530000D02*
X151310000Y-79600000D01*
X149210000Y-77340000D02*
X148970000Y-77010000D01*
X149450000Y-77010000D01*
X149210000Y-77340000D01*
G36*
X149210000Y-77340000D02*
G01*
X148970000Y-77010000D01*
X149450000Y-77010000D01*
X149210000Y-77340000D01*
G37*
%TO.C,R23*%
X143872936Y-82540000D02*
X145327064Y-82540000D01*
X143872936Y-84360000D02*
X145327064Y-84360000D01*
%TO.C,R16*%
X132140000Y-91122936D02*
X132140000Y-92577064D01*
X133960000Y-91122936D02*
X133960000Y-92577064D01*
%TO.C,R12*%
X121772936Y-86790000D02*
X123227064Y-86790000D01*
X121772936Y-88610000D02*
X123227064Y-88610000D01*
%TO.C,R21*%
X145427064Y-85040000D02*
X143972936Y-85040000D01*
X145427064Y-86860000D02*
X143972936Y-86860000D01*
%TO.C,Q5*%
X128110000Y-81620000D02*
X127310000Y-81620000D01*
X128110000Y-81620000D02*
X128910000Y-81620000D01*
X128910000Y-81620000D02*
X128910000Y-82550000D01*
X128910000Y-84780000D02*
X127450000Y-84780000D01*
X128910000Y-84780000D02*
X128910000Y-83850000D01*
X126810000Y-81590000D02*
X126570000Y-81260000D01*
X127050000Y-81260000D01*
X126810000Y-81590000D01*
G36*
X126810000Y-81590000D02*
G01*
X126570000Y-81260000D01*
X127050000Y-81260000D01*
X126810000Y-81590000D01*
G37*
%TO.C,R5*%
X110872936Y-81540000D02*
X112327064Y-81540000D01*
X110872936Y-83360000D02*
X112327064Y-83360000D01*
%TO.C,R17*%
X132872936Y-82140000D02*
X134327064Y-82140000D01*
X132872936Y-83960000D02*
X134327064Y-83960000D01*
%TO.C,R13*%
X134140000Y-78272936D02*
X134140000Y-79727064D01*
X135960000Y-78272936D02*
X135960000Y-79727064D01*
%TO.C,R20*%
X148772936Y-87540000D02*
X150227064Y-87540000D01*
X148772936Y-89360000D02*
X150227064Y-89360000D01*
%TO.C,R8*%
X126772936Y-86790000D02*
X128227064Y-86790000D01*
X126772936Y-88610000D02*
X128227064Y-88610000D01*
%TO.C,R4*%
X110140000Y-90522936D02*
X110140000Y-91977064D01*
X111960000Y-90522936D02*
X111960000Y-91977064D01*
%TO.C,R9*%
X123427064Y-84290000D02*
X121972936Y-84290000D01*
X123427064Y-86110000D02*
X121972936Y-86110000D01*
%TO.C,R1*%
X112140000Y-77672936D02*
X112140000Y-79127064D01*
X113960000Y-77672936D02*
X113960000Y-79127064D01*
%TO.C,R2*%
X115772936Y-86540000D02*
X117227064Y-86540000D01*
X115772936Y-88360000D02*
X117227064Y-88360000D01*
%TO.C,Q4*%
X128510000Y-76620000D02*
X127710000Y-76620000D01*
X128510000Y-76620000D02*
X129310000Y-76620000D01*
X129310000Y-76620000D02*
X129310000Y-77550000D01*
X129310000Y-79780000D02*
X127850000Y-79780000D01*
X129310000Y-79780000D02*
X129310000Y-78850000D01*
X127210000Y-76590000D02*
X126970000Y-76260000D01*
X127450000Y-76260000D01*
X127210000Y-76590000D01*
G36*
X127210000Y-76590000D02*
G01*
X126970000Y-76260000D01*
X127450000Y-76260000D01*
X127210000Y-76590000D01*
G37*
%TO.C,Q3*%
X115010000Y-88870000D02*
X114210000Y-88870000D01*
X115010000Y-88870000D02*
X115810000Y-88870000D01*
X115810000Y-88870000D02*
X115810000Y-89800000D01*
X115810000Y-92030000D02*
X114350000Y-92030000D01*
X115810000Y-92030000D02*
X115810000Y-91100000D01*
X113710000Y-88840000D02*
X113470000Y-88510000D01*
X113950000Y-88510000D01*
X113710000Y-88840000D01*
G36*
X113710000Y-88840000D02*
G01*
X113470000Y-88510000D01*
X113950000Y-88510000D01*
X113710000Y-88840000D01*
G37*
%TO.C,Q7*%
X139510000Y-76970000D02*
X138710000Y-76970000D01*
X139510000Y-76970000D02*
X140310000Y-76970000D01*
X140310000Y-76970000D02*
X140310000Y-77900000D01*
X140310000Y-80130000D02*
X138850000Y-80130000D01*
X140310000Y-80130000D02*
X140310000Y-79200000D01*
X138210000Y-76940000D02*
X137970000Y-76610000D01*
X138450000Y-76610000D01*
X138210000Y-76940000D01*
G36*
X138210000Y-76940000D02*
G01*
X137970000Y-76610000D01*
X138450000Y-76610000D01*
X138210000Y-76940000D01*
G37*
%TO.C,Q6*%
X126010000Y-89120000D02*
X125210000Y-89120000D01*
X126010000Y-89120000D02*
X126810000Y-89120000D01*
X126810000Y-89120000D02*
X126810000Y-90050000D01*
X126810000Y-92280000D02*
X125350000Y-92280000D01*
X126810000Y-92280000D02*
X126810000Y-91350000D01*
X124710000Y-89090000D02*
X124470000Y-88760000D01*
X124950000Y-88760000D01*
X124710000Y-89090000D01*
G36*
X124710000Y-89090000D02*
G01*
X124470000Y-88760000D01*
X124950000Y-88760000D01*
X124710000Y-89090000D01*
G37*
%TO.C,R22*%
X143140000Y-91522936D02*
X143140000Y-92977064D01*
X144960000Y-91522936D02*
X144960000Y-92977064D01*
%TO.C,Q8*%
X139110000Y-81970000D02*
X138310000Y-81970000D01*
X139110000Y-81970000D02*
X139910000Y-81970000D01*
X139910000Y-81970000D02*
X139910000Y-82900000D01*
X139910000Y-85130000D02*
X138450000Y-85130000D01*
X139910000Y-85130000D02*
X139910000Y-84200000D01*
X137810000Y-81940000D02*
X137570000Y-81610000D01*
X138050000Y-81610000D01*
X137810000Y-81940000D01*
G36*
X137810000Y-81940000D02*
G01*
X137570000Y-81610000D01*
X138050000Y-81610000D01*
X137810000Y-81940000D01*
G37*
%TO.C,R15*%
X134427064Y-84640000D02*
X132972936Y-84640000D01*
X134427064Y-86460000D02*
X132972936Y-86460000D01*
%TO.C,R24*%
X143772936Y-87540000D02*
X145227064Y-87540000D01*
X143772936Y-89360000D02*
X145227064Y-89360000D01*
%TO.C,R19*%
X145140000Y-78672936D02*
X145140000Y-80127064D01*
X146960000Y-78672936D02*
X146960000Y-80127064D01*
%TD*%
M02*
