M48
; DRILL file {KiCad 8.0.6} date 2024-11-07T23:39:02+0000
; FORMAT={-:-/ absolute / inch / decimal}
; #@! TF.CreationDate,2024-11-07T23:39:02+00:00
; #@! TF.GenerationSoftware,Kicad,Pcbnew,8.0.6
; #@! TF.FileFunction,Plated,1,2,PTH
FMAT,2
INCH
; #@! TA.AperFunction,Plated,PTH,ViaDrill
T1C0.0118
; #@! TA.AperFunction,Plated,PTH,ComponentDrill
T2C0.0394
%
G90
G05
T1
X4.4577Y-3.6535
X4.6181Y-3.3039
X4.6319Y-3.0315
X4.7392Y-3.6535
X4.8169Y-3.0315
X4.8957Y-3.6634
X5.0476Y-3.3039
X5.0669Y-3.0413
X5.1772Y-3.6634
X5.252Y-3.0413
X5.3248Y-3.6772
X5.4772Y-3.3039
X5.502Y-3.0551
X5.6063Y-3.6772
X5.687Y-3.0551
X5.8535Y-3.3039
T2
X4.6819Y-2.9
X4.6819Y-3.7992
X4.7819Y-2.9
X4.7819Y-3.7992
X4.8819Y-2.9
X4.8819Y-3.7992
X4.9819Y-2.9
X4.9819Y-3.7992
X5.0819Y-2.9
X5.0819Y-3.7992
X5.1819Y-2.9
X5.1819Y-3.7992
X5.2819Y-2.9
X5.2819Y-3.7992
X5.3819Y-2.9
X5.3819Y-3.7992
X5.4819Y-2.9
X5.4819Y-3.7992
X5.5819Y-2.9
X5.5819Y-3.7992
M30
