%TF.GenerationSoftware,KiCad,Pcbnew,8.0.6*%
%TF.CreationDate,2024-11-07T23:38:59+00:00*%
%TF.ProjectId,pin_interface_circuit,70696e5f-696e-4746-9572-666163655f63,rev?*%
%TF.SameCoordinates,Original*%
%TF.FileFunction,Copper,L2,Bot*%
%TF.FilePolarity,Positive*%
%FSLAX46Y46*%
G04 Gerber Fmt 4.6, Leading zero omitted, Abs format (unit mm)*
G04 Created by KiCad (PCBNEW 8.0.6) date 2024-11-07 23:38:59*
%MOMM*%
%LPD*%
G01*
G04 APERTURE LIST*
%TA.AperFunction,ComponentPad*%
%ADD10R,1.700000X1.700000*%
%TD*%
%TA.AperFunction,ComponentPad*%
%ADD11O,1.700000X1.700000*%
%TD*%
%TA.AperFunction,ViaPad*%
%ADD12C,0.600000*%
%TD*%
%TA.AperFunction,Conductor*%
%ADD13C,0.200000*%
%TD*%
G04 APERTURE END LIST*
D10*
%TO.P,J1,1,Pin_1*%
%TO.N,GND*%
X141780000Y-96500000D03*
D11*
%TO.P,J1,2,Pin_2*%
%TO.N,/GS3*%
X139240000Y-96500000D03*
%TO.P,J1,3,Pin_3*%
%TO.N,/HVS3*%
X136700000Y-96500000D03*
%TO.P,J1,4,Pin_4*%
%TO.N,/GS2*%
X134160000Y-96500000D03*
%TO.P,J1,5,Pin_5*%
%TO.N,/HVS2*%
X131620000Y-96500000D03*
%TO.P,J1,6,Pin_6*%
%TO.N,/GS1*%
X129080000Y-96500000D03*
%TO.P,J1,7,Pin_7*%
%TO.N,/HVS1*%
X126540000Y-96500000D03*
%TO.P,J1,8,Pin_8*%
%TO.N,/GS0*%
X124000000Y-96500000D03*
%TO.P,J1,9,Pin_9*%
%TO.N,/HVS0*%
X121460000Y-96500000D03*
%TO.P,J1,10,Pin_10*%
%TO.N,unconnected-(J1-Pin_10-Pad10)*%
X118920000Y-96500000D03*
%TD*%
D10*
%TO.P,J2,1,Pin_1*%
%TO.N,/LIO0*%
X118920000Y-73660000D03*
D11*
%TO.P,J2,2,Pin_2*%
%TO.N,/LV*%
X121460000Y-73660000D03*
%TO.P,J2,3,Pin_3*%
%TO.N,/HIO0*%
X124000000Y-73660000D03*
%TO.P,J2,4,Pin_4*%
%TO.N,/LIO1*%
X126540000Y-73660000D03*
%TO.P,J2,5,Pin_5*%
%TO.N,/HIO1*%
X129080000Y-73660000D03*
%TO.P,J2,6,Pin_6*%
%TO.N,/LIO2*%
X131620000Y-73660000D03*
%TO.P,J2,7,Pin_7*%
%TO.N,/HIO2*%
X134160000Y-73660000D03*
%TO.P,J2,8,Pin_8*%
%TO.N,/LIO3*%
X136700000Y-73660000D03*
%TO.P,J2,9,Pin_9*%
%TO.N,/HV*%
X139240000Y-73660000D03*
%TO.P,J2,10,Pin_10*%
%TO.N,/HIO3*%
X141780000Y-73660000D03*
%TD*%
D12*
%TO.N,GND*%
X142400000Y-93400000D03*
X131500000Y-93050000D03*
X120375000Y-92800000D03*
X135250000Y-93400000D03*
X124350000Y-93050000D03*
X113225000Y-92800000D03*
%TO.N,/LV*%
X144450000Y-77600000D03*
X128700000Y-77250000D03*
X122350000Y-77000000D03*
X117650000Y-77000000D03*
X139750000Y-77600000D03*
X133400000Y-77250000D03*
%TO.N,/HV*%
X139120000Y-83920000D03*
X117300000Y-83920000D03*
X128210000Y-83920000D03*
X148680000Y-83920000D03*
%TD*%
D13*
%TO.N,GND*%
X135250000Y-93400000D02*
X142400000Y-93400000D01*
X124350000Y-93050000D02*
X131500000Y-93050000D01*
X113225000Y-92800000D02*
X120375000Y-92800000D01*
%TO.N,/LV*%
X117650000Y-77000000D02*
X122350000Y-77000000D01*
X128700000Y-77250000D02*
X133400000Y-77250000D01*
X139750000Y-77600000D02*
X144450000Y-77600000D01*
%TO.N,/HV*%
X117300000Y-83920000D02*
X128210000Y-83920000D01*
X128210000Y-83920000D02*
X139120000Y-83920000D01*
X139120000Y-83920000D02*
X148680000Y-83920000D01*
%TD*%
M02*
