%TF.GenerationSoftware,KiCad,Pcbnew,9.0.0*%
%TF.CreationDate,2025-07-15T20:53:33+01:00*%
%TF.ProjectId,debug,64656275-672e-46b6-9963-61645f706362,rev?*%
%TF.SameCoordinates,Original*%
%TF.FileFunction,Soldermask,Bot*%
%TF.FilePolarity,Negative*%
%FSLAX46Y46*%
G04 Gerber Fmt 4.6, Leading zero omitted, Abs format (unit mm)*
G04 Created by KiCad (PCBNEW 9.0.0) date 2025-07-15 20:53:33*
%MOMM*%
%LPD*%
G01*
G04 APERTURE LIST*
G04 Aperture macros list*
%AMRoundRect*
0 Rectangle with rounded corners*
0 $1 Rounding radius*
0 $2 $3 $4 $5 $6 $7 $8 $9 X,Y pos of 4 corners*
0 Add a 4 corners polygon primitive as box body*
4,1,4,$2,$3,$4,$5,$6,$7,$8,$9,$2,$3,0*
0 Add four circle primitives for the rounded corners*
1,1,$1+$1,$2,$3*
1,1,$1+$1,$4,$5*
1,1,$1+$1,$6,$7*
1,1,$1+$1,$8,$9*
0 Add four rect primitives between the rounded corners*
20,1,$1+$1,$2,$3,$4,$5,0*
20,1,$1+$1,$4,$5,$6,$7,0*
20,1,$1+$1,$6,$7,$8,$9,0*
20,1,$1+$1,$8,$9,$2,$3,0*%
%AMFreePoly0*
4,1,23,0.500000,-0.750000,0.000000,-0.750000,0.000000,-0.745722,-0.065263,-0.745722,-0.191342,-0.711940,-0.304381,-0.646677,-0.396677,-0.554381,-0.461940,-0.441342,-0.495722,-0.315263,-0.495722,-0.250000,-0.500000,-0.250000,-0.500000,0.250000,-0.495722,0.250000,-0.495722,0.315263,-0.461940,0.441342,-0.396677,0.554381,-0.304381,0.646677,-0.191342,0.711940,-0.065263,0.745722,0.000000,0.745722,
0.000000,0.750000,0.500000,0.750000,0.500000,-0.750000,0.500000,-0.750000,$1*%
%AMFreePoly1*
4,1,23,0.000000,0.745722,0.065263,0.745722,0.191342,0.711940,0.304381,0.646677,0.396677,0.554381,0.461940,0.441342,0.495722,0.315263,0.495722,0.250000,0.500000,0.250000,0.500000,-0.250000,0.495722,-0.250000,0.495722,-0.315263,0.461940,-0.441342,0.396677,-0.554381,0.304381,-0.646677,0.191342,-0.711940,0.065263,-0.745722,0.000000,-0.745722,0.000000,-0.750000,-0.500000,-0.750000,
-0.500000,0.750000,0.000000,0.750000,0.000000,0.745722,0.000000,0.745722,$1*%
G04 Aperture macros list end*
%ADD10R,1.700000X1.700000*%
%ADD11O,1.700000X1.700000*%
%ADD12R,1.524000X1.524000*%
%ADD13C,1.524000*%
%ADD14RoundRect,0.250000X0.400000X0.625000X-0.400000X0.625000X-0.400000X-0.625000X0.400000X-0.625000X0*%
%ADD15FreePoly0,180.000000*%
%ADD16FreePoly1,180.000000*%
%ADD17FreePoly0,0.000000*%
%ADD18FreePoly1,0.000000*%
G04 APERTURE END LIST*
%TO.C,JP2*%
G36*
X184095000Y-93450000D02*
G01*
X183795000Y-93450000D01*
X183795000Y-94950000D01*
X184095000Y-94950000D01*
X184095000Y-93450000D01*
G37*
%TO.C,JP1*%
G36*
X184095000Y-89450000D02*
G01*
X183795000Y-89450000D01*
X183795000Y-90950000D01*
X184095000Y-90950000D01*
X184095000Y-89450000D01*
G37*
%TO.C,JP7*%
G36*
X171780000Y-121270000D02*
G01*
X172080000Y-121270000D01*
X172080000Y-119770000D01*
X171780000Y-119770000D01*
X171780000Y-121270000D01*
G37*
%TO.C,JP6*%
G36*
X184095000Y-109450000D02*
G01*
X183795000Y-109450000D01*
X183795000Y-110950000D01*
X184095000Y-110950000D01*
X184095000Y-109450000D01*
G37*
%TO.C,JP3*%
G36*
X184095000Y-97450000D02*
G01*
X183795000Y-97450000D01*
X183795000Y-98950000D01*
X184095000Y-98950000D01*
X184095000Y-97450000D01*
G37*
%TO.C,JP5*%
G36*
X184095000Y-105450000D02*
G01*
X183795000Y-105450000D01*
X183795000Y-106950000D01*
X184095000Y-106950000D01*
X184095000Y-105450000D01*
G37*
%TO.C,JP4*%
G36*
X184095000Y-101450000D02*
G01*
X183795000Y-101450000D01*
X183795000Y-102950000D01*
X184095000Y-102950000D01*
X184095000Y-101450000D01*
G37*
%TD*%
D10*
%TO.C,CN7*%
X68580000Y-81280000D03*
D11*
X71120000Y-81280000D03*
X68580000Y-83820000D03*
X71120000Y-83820000D03*
X68580000Y-86360000D03*
X71120000Y-86360000D03*
X68580000Y-88900000D03*
X71120000Y-88900000D03*
X68580000Y-91440000D03*
X71120000Y-91440000D03*
X68580000Y-93980000D03*
X71120000Y-93980000D03*
X68580000Y-96520000D03*
X71120000Y-96520000D03*
X68580000Y-99060000D03*
X71120000Y-99060000D03*
X68580000Y-101600000D03*
X71120000Y-101600000D03*
X68580000Y-104140000D03*
X71120000Y-104140000D03*
X68580000Y-106680000D03*
X71120000Y-106680000D03*
X68580000Y-109220000D03*
X71120000Y-109220000D03*
X68580000Y-111760000D03*
X71120000Y-111760000D03*
X68580000Y-114300000D03*
X71120000Y-114300000D03*
X68580000Y-116840000D03*
X71120000Y-116840000D03*
X68580000Y-119380000D03*
X71120000Y-119380000D03*
X68580000Y-121920000D03*
X71120000Y-121920000D03*
X68580000Y-124460000D03*
X71120000Y-124460000D03*
X68580000Y-127000000D03*
X71120000Y-127000000D03*
%TD*%
D10*
%TO.C,J2*%
X58420000Y-116840000D03*
D11*
X58420000Y-119380000D03*
%TD*%
D10*
%TO.C,J3*%
X58420000Y-88900000D03*
D11*
X58420000Y-91440000D03*
X58420000Y-93980000D03*
X58420000Y-96520000D03*
%TD*%
D10*
%TO.C,CN10*%
X165100000Y-81280000D03*
D11*
X167640000Y-81280000D03*
X165100000Y-83820000D03*
X167640000Y-83820000D03*
X165100000Y-86360000D03*
X167640000Y-86360000D03*
X165100000Y-88900000D03*
X167640000Y-88900000D03*
X165100000Y-91440000D03*
X167640000Y-91440000D03*
X165100000Y-93980000D03*
X167640000Y-93980000D03*
X165100000Y-96520000D03*
X167640000Y-96520000D03*
X165100000Y-99060000D03*
X167640000Y-99060000D03*
X165100000Y-101600000D03*
X167640000Y-101600000D03*
X165100000Y-104140000D03*
X167640000Y-104140000D03*
X165100000Y-106680000D03*
X167640000Y-106680000D03*
X165100000Y-109220000D03*
X167640000Y-109220000D03*
X165100000Y-111760000D03*
X167640000Y-111760000D03*
X165100000Y-114300000D03*
X167640000Y-114300000D03*
X165100000Y-116840000D03*
X167640000Y-116840000D03*
X165100000Y-119380000D03*
X167640000Y-119380000D03*
X165100000Y-121920000D03*
X167640000Y-121920000D03*
X165100000Y-124460000D03*
X167640000Y-124460000D03*
X165100000Y-127000000D03*
X167640000Y-127000000D03*
%TD*%
D10*
%TO.C,J1*%
X182880000Y-81280000D03*
D11*
X182880000Y-83820000D03*
%TD*%
D12*
%TO.C,U1*%
X86360000Y-81280000D03*
D13*
X88900000Y-81280000D03*
X86360000Y-83820000D03*
X88900000Y-83820000D03*
X86360000Y-86360000D03*
X88900000Y-86360000D03*
X86360000Y-88900000D03*
X88900000Y-88900000D03*
X86360000Y-91440000D03*
X88900000Y-91440000D03*
X86360000Y-93980000D03*
X88900000Y-93980000D03*
X86360000Y-96520000D03*
X88900000Y-96520000D03*
X86360000Y-99060000D03*
X88900000Y-99060000D03*
X86360000Y-101600000D03*
X88900000Y-101600000D03*
X86360000Y-104140000D03*
X88900000Y-104140000D03*
X86360000Y-106680000D03*
X88900000Y-106680000D03*
X86360000Y-109220000D03*
X88900000Y-109220000D03*
X86360000Y-111760000D03*
X88900000Y-111760000D03*
X86360000Y-114300000D03*
X88900000Y-114300000D03*
X86360000Y-116840000D03*
X88900000Y-116840000D03*
X86360000Y-119380000D03*
X88900000Y-119380000D03*
X86360000Y-121920000D03*
X88900000Y-121920000D03*
X86360000Y-124460000D03*
X88900000Y-124460000D03*
X86360000Y-127000000D03*
X88900000Y-127000000D03*
X147320000Y-81280000D03*
X149860000Y-81280000D03*
X147320000Y-83820000D03*
X149860000Y-83820000D03*
X147320000Y-86360000D03*
X149860000Y-86360000D03*
X147320000Y-88900000D03*
X149860000Y-88900000D03*
X147320000Y-91440000D03*
X149860000Y-91440000D03*
X147320000Y-93980000D03*
X149860000Y-93980000D03*
X147320000Y-96520000D03*
X149860000Y-96520000D03*
X147320000Y-99060000D03*
X149860000Y-99060000D03*
X147320000Y-101600000D03*
X149860000Y-101600000D03*
X147320000Y-104140000D03*
X149860000Y-104140000D03*
X147320000Y-106680000D03*
X149860000Y-106680000D03*
X147320000Y-109220000D03*
X149860000Y-109220000D03*
X147320000Y-111760000D03*
X149860000Y-111760000D03*
X147320000Y-114300000D03*
X149860000Y-114300000D03*
X147320000Y-116840000D03*
X149860000Y-116840000D03*
X147320000Y-119380000D03*
X149860000Y-119380000D03*
X147320000Y-121920000D03*
X149860000Y-121920000D03*
X147320000Y-124460000D03*
X149860000Y-124460000D03*
X147320000Y-127000000D03*
X149860000Y-127000000D03*
%TD*%
D14*
%TO.C,R2*%
X189695000Y-94200000D03*
X186595000Y-94200000D03*
%TD*%
%TO.C,R4*%
X189695000Y-102200000D03*
X186595000Y-102200000D03*
%TD*%
D15*
%TO.C,JP2*%
X184595000Y-94200000D03*
D16*
X183295000Y-94200000D03*
%TD*%
D15*
%TO.C,JP1*%
X184595000Y-90200000D03*
D16*
X183295000Y-90200000D03*
%TD*%
D14*
%TO.C,R3*%
X189695000Y-98200000D03*
X186595000Y-98200000D03*
%TD*%
D17*
%TO.C,JP7*%
X171280000Y-120520000D03*
D18*
X172580000Y-120520000D03*
%TD*%
D15*
%TO.C,JP6*%
X184595000Y-110200000D03*
D16*
X183295000Y-110200000D03*
%TD*%
D14*
%TO.C,R1*%
X189695000Y-90200000D03*
X186595000Y-90200000D03*
%TD*%
D15*
%TO.C,JP3*%
X184595000Y-98200000D03*
D16*
X183295000Y-98200000D03*
%TD*%
D14*
%TO.C,R6*%
X189695000Y-110200000D03*
X186595000Y-110200000D03*
%TD*%
D15*
%TO.C,JP5*%
X184595000Y-106200000D03*
D16*
X183295000Y-106200000D03*
%TD*%
D14*
%TO.C,R5*%
X189695000Y-106200000D03*
X186595000Y-106200000D03*
%TD*%
D15*
%TO.C,JP4*%
X184595000Y-102200000D03*
D16*
X183295000Y-102200000D03*
%TD*%
M02*
